<?xml version="1.0" encoding="utf-8" standalone="no"?>
<!DOCTYPE svg PUBLIC "-//W3C//DTD SVG 1.1//EN"
  "http://www.w3.org/Graphics/SVG/1.1/DTD/svg11.dtd">
<!-- Created with matplotlib (http://matplotlib.org/) -->
<svg height="600pt" version="1.1" viewBox="0 0 600 600" width="600pt" xmlns="http://www.w3.org/2000/svg" xmlns:xlink="http://www.w3.org/1999/xlink">
 <defs>
  <style type="text/css">
*{stroke-linecap:butt;stroke-linejoin:round;}
  </style>
 </defs>
 <g id="figure_1">
  <g id="patch_1">
   <path d="
M0 600
L600 600
L600 0
L0 0
z
" style="fill:#ffffff;"/>
  </g>
  <g id="axes_1">
   <g id="patch_2">
    <path d="
M75 540
L540 540
L540 60
L75 60
z
" style="fill:#ffffff;"/>
   </g>
   <g id="PathCollection_1">
    <defs>
     <path d="
M0 1.11803
C0.296506 1.11803 0.580908 1.00023 0.790569 0.790569
C1.00023 0.580908 1.11803 0.296506 1.11803 0
C1.11803 -0.296506 1.00023 -0.580908 0.790569 -0.790569
C0.580908 -1.00023 0.296506 -1.11803 0 -1.11803
C-0.296506 -1.11803 -0.580908 -1.00023 -0.790569 -0.790569
C-1.00023 -0.580908 -1.11803 -0.296506 -1.11803 0
C-1.11803 0.296506 -1.00023 0.580908 -0.790569 0.790569
C-0.580908 1.00023 -0.296506 1.11803 0 1.11803
z
" id="C0_0_af07e0942b"/>
    </defs>
    <g clip-path="url(#pb27f3bcf95)">
     <use style="fill:#0000ff;stroke:#000000;" x="259.08876055" xlink:href="#C0_0_af07e0942b" y="470.468799068"/>
    </g>
    <g clip-path="url(#pb27f3bcf95)">
     <use style="fill:#0000ff;stroke:#000000;" x="433.364521333" xlink:href="#C0_0_af07e0942b" y="342.598191446"/>
    </g>
    <g clip-path="url(#pb27f3bcf95)">
     <use style="fill:#0000ff;stroke:#000000;" x="222.519037006" xlink:href="#C0_0_af07e0942b" y="351.769023578"/>
    </g>
    <g clip-path="url(#pb27f3bcf95)">
     <use style="fill:#0000ff;stroke:#000000;" x="428.005442808" xlink:href="#C0_0_af07e0942b" y="273.861746873"/>
    </g>
    <g clip-path="url(#pb27f3bcf95)">
     <use style="fill:#0000ff;stroke:#000000;" x="254.945466072" xlink:href="#C0_0_af07e0942b" y="369.77005714"/>
    </g>
    <g clip-path="url(#pb27f3bcf95)">
     <use style="fill:#0000ff;stroke:#000000;" x="272.783569357" xlink:href="#C0_0_af07e0942b" y="403.048413603"/>
    </g>
    <g clip-path="url(#pb27f3bcf95)">
     <use style="fill:#0000ff;stroke:#000000;" x="260.836919835" xlink:href="#C0_0_af07e0942b" y="150.98403066"/>
    </g>
    <g clip-path="url(#pb27f3bcf95)">
     <use style="fill:#0000ff;stroke:#000000;" x="297.701331068" xlink:href="#C0_0_af07e0942b" y="171.568048551"/>
    </g>
    <g clip-path="url(#pb27f3bcf95)">
     <use style="fill:#0000ff;stroke:#000000;" x="177.336924439" xlink:href="#C0_0_af07e0942b" y="436.085710028"/>
    </g>
    <g clip-path="url(#pb27f3bcf95)">
     <use style="fill:#0000ff;stroke:#000000;" x="139.465978328" xlink:href="#C0_0_af07e0942b" y="352.903171919"/>
    </g>
    <g clip-path="url(#pb27f3bcf95)">
     <use style="fill:#0000ff;stroke:#000000;" x="173.013337605" xlink:href="#C0_0_af07e0942b" y="375.188825571"/>
    </g>
    <g clip-path="url(#pb27f3bcf95)">
     <use style="fill:#0000ff;stroke:#000000;" x="273.752902956" xlink:href="#C0_0_af07e0942b" y="461.107094307"/>
    </g>
    <g clip-path="url(#pb27f3bcf95)">
     <use style="fill:#0000ff;stroke:#000000;" x="348.325144077" xlink:href="#C0_0_af07e0942b" y="368.583940277"/>
    </g>
    <g clip-path="url(#pb27f3bcf95)">
     <use style="fill:#0000ff;stroke:#000000;" x="428.69890957" xlink:href="#C0_0_af07e0942b" y="440.375614142"/>
    </g>
    <g clip-path="url(#pb27f3bcf95)">
     <use style="fill:#0000ff;stroke:#000000;" x="343.63134892" xlink:href="#C0_0_af07e0942b" y="468.832621415"/>
    </g>
    <g clip-path="url(#pb27f3bcf95)">
     <use style="fill:#0000ff;stroke:#000000;" x="311.649067958" xlink:href="#C0_0_af07e0942b" y="330.718766067"/>
    </g>
    <g clip-path="url(#pb27f3bcf95)">
     <use style="fill:#0000ff;stroke:#000000;" x="341.329154498" xlink:href="#C0_0_af07e0942b" y="155.512224906"/>
    </g>
    <g clip-path="url(#pb27f3bcf95)">
     <use style="fill:#0000ff;stroke:#000000;" x="411.731346423" xlink:href="#C0_0_af07e0942b" y="194.730197855"/>
    </g>
    <g clip-path="url(#pb27f3bcf95)">
     <use style="fill:#0000ff;stroke:#000000;" x="181.761951067" xlink:href="#C0_0_af07e0942b" y="184.443490684"/>
    </g>
    <g clip-path="url(#pb27f3bcf95)">
     <use style="fill:#0000ff;stroke:#000000;" x="139.948865914" xlink:href="#C0_0_af07e0942b" y="263.426680957"/>
    </g>
    <g clip-path="url(#pb27f3bcf95)">
     <use style="fill:#0000ff;stroke:#000000;" x="173.275028743" xlink:href="#C0_0_af07e0942b" y="241.60088651"/>
    </g>
    <g clip-path="url(#pb27f3bcf95)">
     <use style="fill:#0000ff;stroke:#000000;" x="293.449745253" xlink:href="#C0_0_af07e0942b" y="214.794002237"/>
    </g>
    <g clip-path="url(#pb27f3bcf95)">
     <use style="fill:#0000ff;stroke:#000000;" x="307.5" xlink:href="#C0_0_af07e0942b" y="300.0"/>
    </g>
    <g clip-path="url(#pb27f3bcf95)">
     <use style="fill:#0000ff;stroke:#000000;" x="322.756497564" xlink:href="#C0_0_af07e0942b" y="273.638300105"/>
    </g>
    <g clip-path="url(#pb27f3bcf95)">
     <use style="fill:#0000ff;stroke:#000000;" x="233.994723287" xlink:href="#C0_0_af07e0942b" y="299.017257965"/>
    </g>
    <g clip-path="url(#pb27f3bcf95)">
     <use style="fill:#0000ff;stroke:#000000;" x="221.764365144" xlink:href="#C0_0_af07e0942b" y="269.417351577"/>
    </g>
   </g>
   <g id="PathCollection_2">
    <defs>
     <path d="
M1.3692e-16 -2.23607
L-0.502029 -0.690983
L-2.12663 -0.690983
L-0.812299 0.263932
L-1.31433 1.80902
L-1.56896e-16 0.854102
L1.31433 1.80902
L0.812299 0.263932
L2.12663 -0.690983
L0.502029 -0.690983
z
" id="C1_0_39d883b677"/>
    </defs>
    <g clip-path="url(#pb27f3bcf95)">
     <use style="fill:#0000ff;stroke:#000000;" x="430.348311318" xlink:href="#C1_0_39d883b677" y="268.221925268"/>
    </g>
    <g clip-path="url(#pb27f3bcf95)">
     <use style="fill:#0000ff;stroke:#000000;" x="414.465890915" xlink:href="#C1_0_39d883b677" y="192.617272917"/>
    </g>
    <g clip-path="url(#pb27f3bcf95)">
     <use style="fill:#0000ff;stroke:#000000;" x="341.58744058" xlink:href="#C1_0_39d883b677" y="152.01988503"/>
    </g>
    <g clip-path="url(#pb27f3bcf95)">
     <use style="fill:#0000ff;stroke:#000000;" x="297.961342038" xlink:href="#C1_0_39d883b677" y="168.075073885"/>
    </g>
    <g clip-path="url(#pb27f3bcf95)">
     <use style="fill:#0000ff;stroke:#000000;" x="261.020051849" xlink:href="#C1_0_39d883b677" y="147.448129015"/>
    </g>
    <g clip-path="url(#pb27f3bcf95)">
     <use style="fill:#0000ff;stroke:#000000;" x="178.963438726" xlink:href="#C1_0_39d883b677" y="182.16922988"/>
    </g>
    <g clip-path="url(#pb27f3bcf95)">
     <use style="fill:#0000ff;stroke:#000000;" x="170.4243204" xlink:href="#C1_0_39d883b677" y="239.678153319"/>
    </g>
    <g clip-path="url(#pb27f3bcf95)">
     <use style="fill:#0000ff;stroke:#000000;" x="136.858346836" xlink:href="#C1_0_39d883b677" y="261.661003346"/>
    </g>
    <g clip-path="url(#pb27f3bcf95)">
     <use style="fill:#0000ff;stroke:#000000;" x="136.356541046" xlink:href="#C1_0_39d883b677" y="354.64293653"/>
    </g>
    <g clip-path="url(#pb27f3bcf95)">
     <use style="fill:#0000ff;stroke:#000000;" x="170.034713751" xlink:href="#C1_0_39d883b677" y="377.015490101"/>
    </g>
    <g clip-path="url(#pb27f3bcf95)">
     <use style="fill:#0000ff;stroke:#000000;" x="174.385817874" xlink:href="#C1_0_39d883b677" y="438.299950247"/>
    </g>
    <g clip-path="url(#pb27f3bcf95)">
     <use style="fill:#0000ff;stroke:#000000;" x="259.37877883" xlink:href="#C1_0_39d883b677" y="474.046187683"/>
    </g>
    <g clip-path="url(#pb27f3bcf95)">
     <use style="fill:#0000ff;stroke:#000000;" x="274.479556354" xlink:href="#C1_0_39d883b677" y="464.405731601"/>
    </g>
    <g clip-path="url(#pb27f3bcf95)">
     <use style="fill:#0000ff;stroke:#000000;" x="343.958341558" xlink:href="#C1_0_39d883b677" y="472.087073553"/>
    </g>
    <g clip-path="url(#pb27f3bcf95)">
     <use style="fill:#0000ff;stroke:#000000;" x="431.689899745" xlink:href="#C1_0_39d883b677" y="442.738899345"/>
    </g>
    <g clip-path="url(#pb27f3bcf95)">
     <use style="fill:#0000ff;stroke:#000000;" x="436.470658193" xlink:href="#C1_0_39d883b677" y="342.548342698"/>
    </g>
    <g clip-path="url(#pb27f3bcf95)">
     <use style="fill:#0000ff;stroke:#000000;" x="431.810497211" xlink:href="#C1_0_39d883b677" y="278.576496673"/>
    </g>
   </g>
   <g id="patch_3">
    <path clip-path="url(#pb27f3bcf95)" d="
M428.699 440.376
L433.365 342.598
L348.325 368.584
L343.631 468.833
z
" style="fill:#0000ff;opacity:0.2;stroke:#000000;"/>
   </g>
   <g id="patch_4">
    <path clip-path="url(#pb27f3bcf95)" d="
M322.756 273.638
L428.005 273.862
L411.731 194.73
L341.329 155.512
L297.701 171.568
L293.45 214.794
z
" style="fill:#008000;opacity:0.2;stroke:#000000;"/>
   </g>
   <g id="patch_5">
    <path clip-path="url(#pb27f3bcf95)" d="
M311.649 330.719
L254.945 369.77
L272.784 403.048
L348.325 368.584
z
" style="fill:#ff0000;opacity:0.2;stroke:#000000;"/>
   </g>
   <g id="patch_6">
    <path clip-path="url(#pb27f3bcf95)" d="
M293.45 214.794
L297.701 171.568
L260.837 150.984
L181.762 184.443
L173.275 241.601
L221.764 269.417
z
" style="fill:#00bfbf;opacity:0.2;stroke:#000000;"/>
   </g>
   <g id="patch_7">
    <path clip-path="url(#pb27f3bcf95)" d="
M254.945 369.77
L222.519 351.769
L173.013 375.189
L177.337 436.086
L259.089 470.469
L273.753 461.107
L272.784 403.048
z
" style="fill:#bf00bf;opacity:0.2;stroke:#000000;"/>
   </g>
   <g id="patch_8">
    <path clip-path="url(#pb27f3bcf95)" d="
M272.784 403.048
L273.753 461.107
L343.631 468.833
L348.325 368.584
z
" style="fill:#bfbf00;opacity:0.2;stroke:#000000;"/>
   </g>
   <g id="patch_9">
    <path clip-path="url(#pb27f3bcf95)" d="
M221.764 269.417
L173.275 241.601
L139.949 263.427
L139.466 352.903
L173.013 375.189
L222.519 351.769
L233.995 299.017
z
" style="opacity:0.2;stroke:#000000;"/>
   </g>
   <g id="patch_10">
    <path clip-path="url(#pb27f3bcf95)" d="
M233.995 299.017
L307.5 300
L322.756 273.638
L293.45 214.794
L221.764 269.417
z
" style="fill:#0000ff;opacity:0.2;stroke:#000000;"/>
   </g>
   <g id="patch_11">
    <path clip-path="url(#pb27f3bcf95)" d="
M311.649 330.719
L307.5 300
L233.995 299.017
L222.519 351.769
L254.945 369.77
z
" style="fill:#008000;opacity:0.2;stroke:#000000;"/>
   </g>
   <g id="patch_12">
    <path clip-path="url(#pb27f3bcf95)" d="
M348.325 368.584
L433.365 342.598
L428.005 273.862
L322.756 273.638
L307.5 300
L311.649 330.719
z
" style="fill:#ff0000;opacity:0.2;stroke:#000000;"/>
   </g>
   <g id="line2d_1">
    <path clip-path="url(#pb27f3bcf95)" d="
M430.348 268.222
L414.466 192.617
L341.587 152.02
L297.961 168.075
L261.02 147.448
L178.963 182.169
L170.424 239.678
L136.858 261.661
L136.357 354.643
L170.035 377.015
L174.386 438.3
L259.379 474.046
L274.48 464.406
L343.958 472.087
L431.69 442.739
L436.471 342.548
L431.81 278.576" style="fill:none;stroke:#000000;stroke-linecap:square;"/>
   </g>
   <g id="matplotlib.axis_1">
    <g id="xtick_1">
     <g id="line2d_2">
      <path clip-path="url(#pb27f3bcf95)" d="
M75 540
L75 60" style="fill:none;stroke:#000000;stroke-dasharray:1.000000,3.000000;stroke-dashoffset:0.0;stroke-width:0.5;"/>
     </g>
     <g id="line2d_3">
      <defs>
       <path d="
M0 0
L0 -4" id="mc7db9fdffb" style="stroke:#000000;stroke-width:0.5;"/>
      </defs>
      <g>
       <use style="stroke:#000000;stroke-width:0.5;" x="75.0" xlink:href="#mc7db9fdffb" y="540.0"/>
      </g>
     </g>
     <g id="line2d_4">
      <defs>
       <path d="
M0 0
L0 4" id="m5a7d422ac3" style="stroke:#000000;stroke-width:0.5;"/>
      </defs>
      <g>
       <use style="stroke:#000000;stroke-width:0.5;" x="75.0" xlink:href="#m5a7d422ac3" y="60.0"/>
      </g>
     </g>
     <g id="text_1">
      <!-- −300 -->
      <defs>
       <path d="
M40.5781 39.3125
Q47.6562 37.7969 51.625 33
Q55.6094 28.2188 55.6094 21.1875
Q55.6094 10.4062 48.1875 4.48438
Q40.7656 -1.42188 27.0938 -1.42188
Q22.5156 -1.42188 17.6562 -0.515625
Q12.7969 0.390625 7.625 2.20312
L7.625 11.7188
Q11.7188 9.32812 16.5938 8.10938
Q21.4844 6.89062 26.8125 6.89062
Q36.0781 6.89062 40.9375 10.5469
Q45.7969 14.2031 45.7969 21.1875
Q45.7969 27.6406 41.2812 31.2656
Q36.7656 34.9062 28.7188 34.9062
L20.2188 34.9062
L20.2188 43.0156
L29.1094 43.0156
Q36.375 43.0156 40.2344 45.9219
Q44.0938 48.8281 44.0938 54.2969
Q44.0938 59.9062 40.1094 62.9062
Q36.1406 65.9219 28.7188 65.9219
Q24.6562 65.9219 20.0156 65.0312
Q15.375 64.1562 9.8125 62.3125
L9.8125 71.0938
Q15.4375 72.6562 20.3438 73.4375
Q25.25 74.2188 29.5938 74.2188
Q40.8281 74.2188 47.3594 69.1094
Q53.9062 64.0156 53.9062 55.3281
Q53.9062 49.2656 50.4375 45.0938
Q46.9688 40.9219 40.5781 39.3125" id="DejaVuSans-33"/>
       <path d="
M31.7812 66.4062
Q24.1719 66.4062 20.3281 58.9062
Q16.5 51.4219 16.5 36.375
Q16.5 21.3906 20.3281 13.8906
Q24.1719 6.39062 31.7812 6.39062
Q39.4531 6.39062 43.2812 13.8906
Q47.125 21.3906 47.125 36.375
Q47.125 51.4219 43.2812 58.9062
Q39.4531 66.4062 31.7812 66.4062
M31.7812 74.2188
Q44.0469 74.2188 50.5156 64.5156
Q56.9844 54.8281 56.9844 36.375
Q56.9844 17.9688 50.5156 8.26562
Q44.0469 -1.42188 31.7812 -1.42188
Q19.5312 -1.42188 13.0625 8.26562
Q6.59375 17.9688 6.59375 36.375
Q6.59375 54.8281 13.0625 64.5156
Q19.5312 74.2188 31.7812 74.2188" id="DejaVuSans-30"/>
       <path d="
M10.5938 35.5
L73.1875 35.5
L73.1875 27.2031
L10.5938 27.2031
z
" id="DejaVuSans-2212"/>
      </defs>
      <g transform="translate(59.55375 553.118125)scale(0.12 -0.12)">
       <use xlink:href="#DejaVuSans-2212"/>
       <use x="83.7890625" xlink:href="#DejaVuSans-33"/>
       <use x="147.412109375" xlink:href="#DejaVuSans-30"/>
       <use x="211.03515625" xlink:href="#DejaVuSans-30"/>
      </g>
     </g>
    </g>
    <g id="xtick_2">
     <g id="line2d_5">
      <path clip-path="url(#pb27f3bcf95)" d="
M152.5 540
L152.5 60" style="fill:none;stroke:#000000;stroke-dasharray:1.000000,3.000000;stroke-dashoffset:0.0;stroke-width:0.5;"/>
     </g>
     <g id="line2d_6">
      <g>
       <use style="stroke:#000000;stroke-width:0.5;" x="152.5" xlink:href="#mc7db9fdffb" y="540.0"/>
      </g>
     </g>
     <g id="line2d_7">
      <g>
       <use style="stroke:#000000;stroke-width:0.5;" x="152.5" xlink:href="#m5a7d422ac3" y="60.0"/>
      </g>
     </g>
     <g id="text_2">
      <!-- −200 -->
      <defs>
       <path d="
M19.1875 8.29688
L53.6094 8.29688
L53.6094 0
L7.32812 0
L7.32812 8.29688
Q12.9375 14.1094 22.625 23.8906
Q32.3281 33.6875 34.8125 36.5312
Q39.5469 41.8438 41.4219 45.5312
Q43.3125 49.2188 43.3125 52.7812
Q43.3125 58.5938 39.2344 62.25
Q35.1562 65.9219 28.6094 65.9219
Q23.9688 65.9219 18.8125 64.3125
Q13.6719 62.7031 7.8125 59.4219
L7.8125 69.3906
Q13.7656 71.7812 18.9375 73
Q24.125 74.2188 28.4219 74.2188
Q39.75 74.2188 46.4844 68.5469
Q53.2188 62.8906 53.2188 53.4219
Q53.2188 48.9219 51.5312 44.8906
Q49.8594 40.875 45.4062 35.4062
Q44.1875 33.9844 37.6406 27.2188
Q31.1094 20.4531 19.1875 8.29688" id="DejaVuSans-32"/>
      </defs>
      <g transform="translate(137.05375 553.118125)scale(0.12 -0.12)">
       <use xlink:href="#DejaVuSans-2212"/>
       <use x="83.7890625" xlink:href="#DejaVuSans-32"/>
       <use x="147.412109375" xlink:href="#DejaVuSans-30"/>
       <use x="211.03515625" xlink:href="#DejaVuSans-30"/>
      </g>
     </g>
    </g>
    <g id="xtick_3">
     <g id="line2d_8">
      <path clip-path="url(#pb27f3bcf95)" d="
M230 540
L230 60" style="fill:none;stroke:#000000;stroke-dasharray:1.000000,3.000000;stroke-dashoffset:0.0;stroke-width:0.5;"/>
     </g>
     <g id="line2d_9">
      <g>
       <use style="stroke:#000000;stroke-width:0.5;" x="230.0" xlink:href="#mc7db9fdffb" y="540.0"/>
      </g>
     </g>
     <g id="line2d_10">
      <g>
       <use style="stroke:#000000;stroke-width:0.5;" x="230.0" xlink:href="#m5a7d422ac3" y="60.0"/>
      </g>
     </g>
     <g id="text_3">
      <!-- −100 -->
      <defs>
       <path d="
M12.4062 8.29688
L28.5156 8.29688
L28.5156 63.9219
L10.9844 60.4062
L10.9844 69.3906
L28.4219 72.9062
L38.2812 72.9062
L38.2812 8.29688
L54.3906 8.29688
L54.3906 0
L12.4062 0
z
" id="DejaVuSans-31"/>
      </defs>
      <g transform="translate(214.55375 553.118125)scale(0.12 -0.12)">
       <use xlink:href="#DejaVuSans-2212"/>
       <use x="83.7890625" xlink:href="#DejaVuSans-31"/>
       <use x="147.412109375" xlink:href="#DejaVuSans-30"/>
       <use x="211.03515625" xlink:href="#DejaVuSans-30"/>
      </g>
     </g>
    </g>
    <g id="xtick_4">
     <g id="line2d_11">
      <path clip-path="url(#pb27f3bcf95)" d="
M307.5 540
L307.5 60" style="fill:none;stroke:#000000;stroke-dasharray:1.000000,3.000000;stroke-dashoffset:0.0;stroke-width:0.5;"/>
     </g>
     <g id="line2d_12">
      <g>
       <use style="stroke:#000000;stroke-width:0.5;" x="307.5" xlink:href="#mc7db9fdffb" y="540.0"/>
      </g>
     </g>
     <g id="line2d_13">
      <g>
       <use style="stroke:#000000;stroke-width:0.5;" x="307.5" xlink:href="#m5a7d422ac3" y="60.0"/>
      </g>
     </g>
     <g id="text_4">
      <!-- 0 -->
      <g transform="translate(304.4765625 553.118125)scale(0.12 -0.12)">
       <use xlink:href="#DejaVuSans-30"/>
      </g>
     </g>
    </g>
    <g id="xtick_5">
     <g id="line2d_14">
      <path clip-path="url(#pb27f3bcf95)" d="
M385 540
L385 60" style="fill:none;stroke:#000000;stroke-dasharray:1.000000,3.000000;stroke-dashoffset:0.0;stroke-width:0.5;"/>
     </g>
     <g id="line2d_15">
      <g>
       <use style="stroke:#000000;stroke-width:0.5;" x="385.0" xlink:href="#mc7db9fdffb" y="540.0"/>
      </g>
     </g>
     <g id="line2d_16">
      <g>
       <use style="stroke:#000000;stroke-width:0.5;" x="385.0" xlink:href="#m5a7d422ac3" y="60.0"/>
      </g>
     </g>
     <g id="text_5">
      <!-- 100 -->
      <g transform="translate(374.605 553.118125)scale(0.12 -0.12)">
       <use xlink:href="#DejaVuSans-31"/>
       <use x="63.623046875" xlink:href="#DejaVuSans-30"/>
       <use x="127.24609375" xlink:href="#DejaVuSans-30"/>
      </g>
     </g>
    </g>
    <g id="xtick_6">
     <g id="line2d_17">
      <path clip-path="url(#pb27f3bcf95)" d="
M462.5 540
L462.5 60" style="fill:none;stroke:#000000;stroke-dasharray:1.000000,3.000000;stroke-dashoffset:0.0;stroke-width:0.5;"/>
     </g>
     <g id="line2d_18">
      <g>
       <use style="stroke:#000000;stroke-width:0.5;" x="462.5" xlink:href="#mc7db9fdffb" y="540.0"/>
      </g>
     </g>
     <g id="line2d_19">
      <g>
       <use style="stroke:#000000;stroke-width:0.5;" x="462.5" xlink:href="#m5a7d422ac3" y="60.0"/>
      </g>
     </g>
     <g id="text_6">
      <!-- 200 -->
      <g transform="translate(451.885625 553.118125)scale(0.12 -0.12)">
       <use xlink:href="#DejaVuSans-32"/>
       <use x="63.623046875" xlink:href="#DejaVuSans-30"/>
       <use x="127.24609375" xlink:href="#DejaVuSans-30"/>
      </g>
     </g>
    </g>
    <g id="xtick_7">
     <g id="line2d_20">
      <path clip-path="url(#pb27f3bcf95)" d="
M540 540
L540 60" style="fill:none;stroke:#000000;stroke-dasharray:1.000000,3.000000;stroke-dashoffset:0.0;stroke-width:0.5;"/>
     </g>
     <g id="line2d_21">
      <g>
       <use style="stroke:#000000;stroke-width:0.5;" x="540.0" xlink:href="#mc7db9fdffb" y="540.0"/>
      </g>
     </g>
     <g id="line2d_22">
      <g>
       <use style="stroke:#000000;stroke-width:0.5;" x="540.0" xlink:href="#m5a7d422ac3" y="60.0"/>
      </g>
     </g>
     <g id="text_7">
      <!-- 300 -->
      <g transform="translate(529.4034375 553.118125)scale(0.12 -0.12)">
       <use xlink:href="#DejaVuSans-33"/>
       <use x="63.623046875" xlink:href="#DejaVuSans-30"/>
       <use x="127.24609375" xlink:href="#DejaVuSans-30"/>
      </g>
     </g>
    </g>
   </g>
   <g id="matplotlib.axis_2">
    <g id="ytick_1">
     <g id="line2d_23">
      <path clip-path="url(#pb27f3bcf95)" d="
M75 540
L540 540" style="fill:none;stroke:#000000;stroke-dasharray:1.000000,3.000000;stroke-dashoffset:0.0;stroke-width:0.5;"/>
     </g>
     <g id="line2d_24">
      <defs>
       <path d="
M0 0
L4 0" id="md7965d1ba0" style="stroke:#000000;stroke-width:0.5;"/>
      </defs>
      <g>
       <use style="stroke:#000000;stroke-width:0.5;" x="75.0" xlink:href="#md7965d1ba0" y="540.0"/>
      </g>
     </g>
     <g id="line2d_25">
      <defs>
       <path d="
M0 0
L-4 0" id="md9a1c1a7cd" style="stroke:#000000;stroke-width:0.5;"/>
      </defs>
      <g>
       <use style="stroke:#000000;stroke-width:0.5;" x="540.0" xlink:href="#md9a1c1a7cd" y="540.0"/>
      </g>
     </g>
     <g id="text_8">
      <!-- −300 -->
      <g transform="translate(40.1075 543.31125)scale(0.12 -0.12)">
       <use xlink:href="#DejaVuSans-2212"/>
       <use x="83.7890625" xlink:href="#DejaVuSans-33"/>
       <use x="147.412109375" xlink:href="#DejaVuSans-30"/>
       <use x="211.03515625" xlink:href="#DejaVuSans-30"/>
      </g>
     </g>
    </g>
    <g id="ytick_2">
     <g id="line2d_26">
      <path clip-path="url(#pb27f3bcf95)" d="
M75 460
L540 460" style="fill:none;stroke:#000000;stroke-dasharray:1.000000,3.000000;stroke-dashoffset:0.0;stroke-width:0.5;"/>
     </g>
     <g id="line2d_27">
      <g>
       <use style="stroke:#000000;stroke-width:0.5;" x="75.0" xlink:href="#md7965d1ba0" y="460.0"/>
      </g>
     </g>
     <g id="line2d_28">
      <g>
       <use style="stroke:#000000;stroke-width:0.5;" x="540.0" xlink:href="#md9a1c1a7cd" y="460.0"/>
      </g>
     </g>
     <g id="text_9">
      <!-- −200 -->
      <g transform="translate(40.1075 463.31125)scale(0.12 -0.12)">
       <use xlink:href="#DejaVuSans-2212"/>
       <use x="83.7890625" xlink:href="#DejaVuSans-32"/>
       <use x="147.412109375" xlink:href="#DejaVuSans-30"/>
       <use x="211.03515625" xlink:href="#DejaVuSans-30"/>
      </g>
     </g>
    </g>
    <g id="ytick_3">
     <g id="line2d_29">
      <path clip-path="url(#pb27f3bcf95)" d="
M75 380
L540 380" style="fill:none;stroke:#000000;stroke-dasharray:1.000000,3.000000;stroke-dashoffset:0.0;stroke-width:0.5;"/>
     </g>
     <g id="line2d_30">
      <g>
       <use style="stroke:#000000;stroke-width:0.5;" x="75.0" xlink:href="#md7965d1ba0" y="380.0"/>
      </g>
     </g>
     <g id="line2d_31">
      <g>
       <use style="stroke:#000000;stroke-width:0.5;" x="540.0" xlink:href="#md9a1c1a7cd" y="380.0"/>
      </g>
     </g>
     <g id="text_10">
      <!-- −100 -->
      <g transform="translate(40.1075 383.31125)scale(0.12 -0.12)">
       <use xlink:href="#DejaVuSans-2212"/>
       <use x="83.7890625" xlink:href="#DejaVuSans-31"/>
       <use x="147.412109375" xlink:href="#DejaVuSans-30"/>
       <use x="211.03515625" xlink:href="#DejaVuSans-30"/>
      </g>
     </g>
    </g>
    <g id="ytick_4">
     <g id="line2d_32">
      <path clip-path="url(#pb27f3bcf95)" d="
M75 300
L540 300" style="fill:none;stroke:#000000;stroke-dasharray:1.000000,3.000000;stroke-dashoffset:0.0;stroke-width:0.5;"/>
     </g>
     <g id="line2d_33">
      <g>
       <use style="stroke:#000000;stroke-width:0.5;" x="75.0" xlink:href="#md7965d1ba0" y="300.0"/>
      </g>
     </g>
     <g id="line2d_34">
      <g>
       <use style="stroke:#000000;stroke-width:0.5;" x="540.0" xlink:href="#md9a1c1a7cd" y="300.0"/>
      </g>
     </g>
     <g id="text_11">
      <!-- 0 -->
      <g transform="translate(64.953125 303.31125)scale(0.12 -0.12)">
       <use xlink:href="#DejaVuSans-30"/>
      </g>
     </g>
    </g>
    <g id="ytick_5">
     <g id="line2d_35">
      <path clip-path="url(#pb27f3bcf95)" d="
M75 220
L540 220" style="fill:none;stroke:#000000;stroke-dasharray:1.000000,3.000000;stroke-dashoffset:0.0;stroke-width:0.5;"/>
     </g>
     <g id="line2d_36">
      <g>
       <use style="stroke:#000000;stroke-width:0.5;" x="75.0" xlink:href="#md7965d1ba0" y="220.0"/>
      </g>
     </g>
     <g id="line2d_37">
      <g>
       <use style="stroke:#000000;stroke-width:0.5;" x="540.0" xlink:href="#md9a1c1a7cd" y="220.0"/>
      </g>
     </g>
     <g id="text_12">
      <!-- 100 -->
      <g transform="translate(50.21 223.31125)scale(0.12 -0.12)">
       <use xlink:href="#DejaVuSans-31"/>
       <use x="63.623046875" xlink:href="#DejaVuSans-30"/>
       <use x="127.24609375" xlink:href="#DejaVuSans-30"/>
      </g>
     </g>
    </g>
    <g id="ytick_6">
     <g id="line2d_38">
      <path clip-path="url(#pb27f3bcf95)" d="
M75 140
L540 140" style="fill:none;stroke:#000000;stroke-dasharray:1.000000,3.000000;stroke-dashoffset:0.0;stroke-width:0.5;"/>
     </g>
     <g id="line2d_39">
      <g>
       <use style="stroke:#000000;stroke-width:0.5;" x="75.0" xlink:href="#md7965d1ba0" y="140.0"/>
      </g>
     </g>
     <g id="line2d_40">
      <g>
       <use style="stroke:#000000;stroke-width:0.5;" x="540.0" xlink:href="#md9a1c1a7cd" y="140.0"/>
      </g>
     </g>
     <g id="text_13">
      <!-- 200 -->
      <g transform="translate(49.77125 143.31125)scale(0.12 -0.12)">
       <use xlink:href="#DejaVuSans-32"/>
       <use x="63.623046875" xlink:href="#DejaVuSans-30"/>
       <use x="127.24609375" xlink:href="#DejaVuSans-30"/>
      </g>
     </g>
    </g>
    <g id="ytick_7">
     <g id="line2d_41">
      <path clip-path="url(#pb27f3bcf95)" d="
M75 60
L540 60" style="fill:none;stroke:#000000;stroke-dasharray:1.000000,3.000000;stroke-dashoffset:0.0;stroke-width:0.5;"/>
     </g>
     <g id="line2d_42">
      <g>
       <use style="stroke:#000000;stroke-width:0.5;" x="75.0" xlink:href="#md7965d1ba0" y="60.0"/>
      </g>
     </g>
     <g id="line2d_43">
      <g>
       <use style="stroke:#000000;stroke-width:0.5;" x="540.0" xlink:href="#md9a1c1a7cd" y="60.0"/>
      </g>
     </g>
     <g id="text_14">
      <!-- 300 -->
      <g transform="translate(49.806875 63.31125)scale(0.12 -0.12)">
       <use xlink:href="#DejaVuSans-33"/>
       <use x="63.623046875" xlink:href="#DejaVuSans-30"/>
       <use x="127.24609375" xlink:href="#DejaVuSans-30"/>
      </g>
     </g>
    </g>
   </g>
   <g id="patch_13">
    <path d="
M540 540
L540 60" style="fill:none;stroke:#000000;"/>
   </g>
   <g id="patch_14">
    <path d="
M75 540
L75 60" style="fill:none;stroke:#000000;"/>
   </g>
   <g id="patch_15">
    <path d="
M75 60
L540 60" style="fill:none;stroke:#000000;"/>
   </g>
   <g id="patch_16">
    <path d="
M75 540
L540 540" style="fill:none;stroke:#000000;"/>
   </g>
   <g id="text_15">
    <!-- 0 -->
    <g transform="translate(259.08876055 470.468799068)scale(0.12 -0.12)">
     <use xlink:href="#DejaVuSans-30"/>
    </g>
   </g>
   <g id="text_16">
    <!-- 1 -->
    <g transform="translate(433.364521333 342.598191446)scale(0.12 -0.12)">
     <use xlink:href="#DejaVuSans-31"/>
    </g>
   </g>
   <g id="text_17">
    <!-- 2 -->
    <g transform="translate(222.519037006 351.769023578)scale(0.12 -0.12)">
     <use xlink:href="#DejaVuSans-32"/>
    </g>
   </g>
   <g id="text_18">
    <!-- 3 -->
    <g transform="translate(428.005442808 273.861746873)scale(0.12 -0.12)">
     <use xlink:href="#DejaVuSans-33"/>
    </g>
   </g>
   <g id="text_19">
    <!-- 4 -->
    <defs>
     <path d="
M37.7969 64.3125
L12.8906 25.3906
L37.7969 25.3906
z

M35.2031 72.9062
L47.6094 72.9062
L47.6094 25.3906
L58.0156 25.3906
L58.0156 17.1875
L47.6094 17.1875
L47.6094 0
L37.7969 0
L37.7969 17.1875
L4.89062 17.1875
L4.89062 26.7031
z
" id="DejaVuSans-34"/>
    </defs>
    <g transform="translate(254.945466072 369.77005714)scale(0.12 -0.12)">
     <use xlink:href="#DejaVuSans-34"/>
    </g>
   </g>
   <g id="text_20">
    <!-- 5 -->
    <defs>
     <path d="
M10.7969 72.9062
L49.5156 72.9062
L49.5156 64.5938
L19.8281 64.5938
L19.8281 46.7344
Q21.9688 47.4688 24.1094 47.8281
Q26.2656 48.1875 28.4219 48.1875
Q40.625 48.1875 47.75 41.5
Q54.8906 34.8125 54.8906 23.3906
Q54.8906 11.625 47.5625 5.09375
Q40.2344 -1.42188 26.9062 -1.42188
Q22.3125 -1.42188 17.5469 -0.640625
Q12.7969 0.140625 7.71875 1.70312
L7.71875 11.625
Q12.1094 9.23438 16.7969 8.0625
Q21.4844 6.89062 26.7031 6.89062
Q35.1562 6.89062 40.0781 11.3281
Q45.0156 15.7656 45.0156 23.3906
Q45.0156 31 40.0781 35.4375
Q35.1562 39.8906 26.7031 39.8906
Q22.75 39.8906 18.8125 39.0156
Q14.8906 38.1406 10.7969 36.2812
z
" id="DejaVuSans-35"/>
    </defs>
    <g transform="translate(272.783569357 403.048413603)scale(0.12 -0.12)">
     <use xlink:href="#DejaVuSans-35"/>
    </g>
   </g>
   <g id="text_21">
    <!-- 6 -->
    <defs>
     <path d="
M33.0156 40.375
Q26.375 40.375 22.4844 35.8281
Q18.6094 31.2969 18.6094 23.3906
Q18.6094 15.5312 22.4844 10.9531
Q26.375 6.39062 33.0156 6.39062
Q39.6562 6.39062 43.5312 10.9531
Q47.4062 15.5312 47.4062 23.3906
Q47.4062 31.2969 43.5312 35.8281
Q39.6562 40.375 33.0156 40.375
M52.5938 71.2969
L52.5938 62.3125
Q48.875 64.0625 45.0938 64.9844
Q41.3125 65.9219 37.5938 65.9219
Q27.8281 65.9219 22.6719 59.3281
Q17.5312 52.7344 16.7969 39.4062
Q19.6719 43.6562 24.0156 45.9219
Q28.375 48.1875 33.5938 48.1875
Q44.5781 48.1875 50.9531 41.5156
Q57.3281 34.8594 57.3281 23.3906
Q57.3281 12.1562 50.6875 5.35938
Q44.0469 -1.42188 33.0156 -1.42188
Q20.3594 -1.42188 13.6719 8.26562
Q6.98438 17.9688 6.98438 36.375
Q6.98438 53.6562 15.1875 63.9375
Q23.3906 74.2188 37.2031 74.2188
Q40.9219 74.2188 44.7031 73.4844
Q48.4844 72.75 52.5938 71.2969" id="DejaVuSans-36"/>
    </defs>
    <g transform="translate(260.836919835 150.98403066)scale(0.12 -0.12)">
     <use xlink:href="#DejaVuSans-36"/>
    </g>
   </g>
   <g id="text_22">
    <!-- 7 -->
    <defs>
     <path d="
M8.20312 72.9062
L55.0781 72.9062
L55.0781 68.7031
L28.6094 0
L18.3125 0
L43.2188 64.5938
L8.20312 64.5938
z
" id="DejaVuSans-37"/>
    </defs>
    <g transform="translate(297.701331068 171.568048551)scale(0.12 -0.12)">
     <use xlink:href="#DejaVuSans-37"/>
    </g>
   </g>
   <g id="text_23">
    <!-- 8 -->
    <defs>
     <path d="
M31.7812 34.625
Q24.75 34.625 20.7188 30.8594
Q16.7031 27.0938 16.7031 20.5156
Q16.7031 13.9219 20.7188 10.1562
Q24.75 6.39062 31.7812 6.39062
Q38.8125 6.39062 42.8594 10.1719
Q46.9219 13.9688 46.9219 20.5156
Q46.9219 27.0938 42.8906 30.8594
Q38.875 34.625 31.7812 34.625
M21.9219 38.8125
Q15.5781 40.375 12.0312 44.7188
Q8.5 49.0781 8.5 55.3281
Q8.5 64.0625 14.7188 69.1406
Q20.9531 74.2188 31.7812 74.2188
Q42.6719 74.2188 48.875 69.1406
Q55.0781 64.0625 55.0781 55.3281
Q55.0781 49.0781 51.5312 44.7188
Q48 40.375 41.7031 38.8125
Q48.8281 37.1562 52.7969 32.3125
Q56.7812 27.4844 56.7812 20.5156
Q56.7812 9.90625 50.3125 4.23438
Q43.8438 -1.42188 31.7812 -1.42188
Q19.7344 -1.42188 13.25 4.23438
Q6.78125 9.90625 6.78125 20.5156
Q6.78125 27.4844 10.7812 32.3125
Q14.7969 37.1562 21.9219 38.8125
M18.3125 54.3906
Q18.3125 48.7344 21.8438 45.5625
Q25.3906 42.3906 31.7812 42.3906
Q38.1406 42.3906 41.7188 45.5625
Q45.3125 48.7344 45.3125 54.3906
Q45.3125 60.0625 41.7188 63.2344
Q38.1406 66.4062 31.7812 66.4062
Q25.3906 66.4062 21.8438 63.2344
Q18.3125 60.0625 18.3125 54.3906" id="DejaVuSans-38"/>
    </defs>
    <g transform="translate(177.336924439 436.085710028)scale(0.12 -0.12)">
     <use xlink:href="#DejaVuSans-38"/>
    </g>
   </g>
   <g id="text_24">
    <!-- 9 -->
    <defs>
     <path d="
M10.9844 1.51562
L10.9844 10.5
Q14.7031 8.73438 18.5 7.8125
Q22.3125 6.89062 25.9844 6.89062
Q35.75 6.89062 40.8906 13.4531
Q46.0469 20.0156 46.7812 33.4062
Q43.9531 29.2031 39.5938 26.9531
Q35.25 24.7031 29.9844 24.7031
Q19.0469 24.7031 12.6719 31.3125
Q6.29688 37.9375 6.29688 49.4219
Q6.29688 60.6406 12.9375 67.4219
Q19.5781 74.2188 30.6094 74.2188
Q43.2656 74.2188 49.9219 64.5156
Q56.5938 54.8281 56.5938 36.375
Q56.5938 19.1406 48.4062 8.85938
Q40.2344 -1.42188 26.4219 -1.42188
Q22.7031 -1.42188 18.8906 -0.6875
Q15.0938 0.046875 10.9844 1.51562
M30.6094 32.4219
Q37.25 32.4219 41.125 36.9531
Q45.0156 41.5 45.0156 49.4219
Q45.0156 57.2812 41.125 61.8438
Q37.25 66.4062 30.6094 66.4062
Q23.9688 66.4062 20.0938 61.8438
Q16.2188 57.2812 16.2188 49.4219
Q16.2188 41.5 20.0938 36.9531
Q23.9688 32.4219 30.6094 32.4219" id="DejaVuSans-39"/>
    </defs>
    <g transform="translate(139.465978328 352.903171919)scale(0.12 -0.12)">
     <use xlink:href="#DejaVuSans-39"/>
    </g>
   </g>
   <g id="text_25">
    <!-- 10 -->
    <g transform="translate(173.013337605 375.188825571)scale(0.12 -0.12)">
     <use xlink:href="#DejaVuSans-31"/>
     <use x="63.623046875" xlink:href="#DejaVuSans-30"/>
    </g>
   </g>
   <g id="text_26">
    <!-- 11 -->
    <g transform="translate(273.752902956 461.107094307)scale(0.12 -0.12)">
     <use xlink:href="#DejaVuSans-31"/>
     <use x="63.623046875" xlink:href="#DejaVuSans-31"/>
    </g>
   </g>
   <g id="text_27">
    <!-- 12 -->
    <g transform="translate(348.325144077 368.583940277)scale(0.12 -0.12)">
     <use xlink:href="#DejaVuSans-31"/>
     <use x="63.623046875" xlink:href="#DejaVuSans-32"/>
    </g>
   </g>
   <g id="text_28">
    <!-- 13 -->
    <g transform="translate(428.69890957 440.375614142)scale(0.12 -0.12)">
     <use xlink:href="#DejaVuSans-31"/>
     <use x="63.623046875" xlink:href="#DejaVuSans-33"/>
    </g>
   </g>
   <g id="text_29">
    <!-- 14 -->
    <g transform="translate(343.63134892 468.832621415)scale(0.12 -0.12)">
     <use xlink:href="#DejaVuSans-31"/>
     <use x="63.623046875" xlink:href="#DejaVuSans-34"/>
    </g>
   </g>
   <g id="text_30">
    <!-- 15 -->
    <g transform="translate(311.649067958 330.718766067)scale(0.12 -0.12)">
     <use xlink:href="#DejaVuSans-31"/>
     <use x="63.623046875" xlink:href="#DejaVuSans-35"/>
    </g>
   </g>
   <g id="text_31">
    <!-- 16 -->
    <g transform="translate(341.329154498 155.512224906)scale(0.12 -0.12)">
     <use xlink:href="#DejaVuSans-31"/>
     <use x="63.623046875" xlink:href="#DejaVuSans-36"/>
    </g>
   </g>
   <g id="text_32">
    <!-- 17 -->
    <g transform="translate(411.731346423 194.730197855)scale(0.12 -0.12)">
     <use xlink:href="#DejaVuSans-31"/>
     <use x="63.623046875" xlink:href="#DejaVuSans-37"/>
    </g>
   </g>
   <g id="text_33">
    <!-- 18 -->
    <g transform="translate(181.761951067 184.443490684)scale(0.12 -0.12)">
     <use xlink:href="#DejaVuSans-31"/>
     <use x="63.623046875" xlink:href="#DejaVuSans-38"/>
    </g>
   </g>
   <g id="text_34">
    <!-- 19 -->
    <g transform="translate(139.948865914 263.426680957)scale(0.12 -0.12)">
     <use xlink:href="#DejaVuSans-31"/>
     <use x="63.623046875" xlink:href="#DejaVuSans-39"/>
    </g>
   </g>
   <g id="text_35">
    <!-- 20 -->
    <g transform="translate(173.275028743 241.60088651)scale(0.12 -0.12)">
     <use xlink:href="#DejaVuSans-32"/>
     <use x="63.623046875" xlink:href="#DejaVuSans-30"/>
    </g>
   </g>
   <g id="text_36">
    <!-- 21 -->
    <g transform="translate(293.449745253 214.794002237)scale(0.12 -0.12)">
     <use xlink:href="#DejaVuSans-32"/>
     <use x="63.623046875" xlink:href="#DejaVuSans-31"/>
    </g>
   </g>
   <g id="text_37">
    <!-- 22 -->
    <g transform="translate(307.5 300.0)scale(0.12 -0.12)">
     <use xlink:href="#DejaVuSans-32"/>
     <use x="63.623046875" xlink:href="#DejaVuSans-32"/>
    </g>
   </g>
   <g id="text_38">
    <!-- 23 -->
    <g transform="translate(322.756497564 273.638300105)scale(0.12 -0.12)">
     <use xlink:href="#DejaVuSans-32"/>
     <use x="63.623046875" xlink:href="#DejaVuSans-33"/>
    </g>
   </g>
   <g id="text_39">
    <!-- 24 -->
    <g transform="translate(233.994723287 299.017257965)scale(0.12 -0.12)">
     <use xlink:href="#DejaVuSans-32"/>
     <use x="63.623046875" xlink:href="#DejaVuSans-34"/>
    </g>
   </g>
   <g id="text_40">
    <!-- 25 -->
    <g transform="translate(221.764365144 269.417351577)scale(0.12 -0.12)">
     <use xlink:href="#DejaVuSans-32"/>
     <use x="63.623046875" xlink:href="#DejaVuSans-35"/>
    </g>
   </g>
   <g id="text_41">
    <!-- r0 -->
    <defs>
     <path d="
M41.1094 46.2969
Q39.5938 47.1719 37.8125 47.5781
Q36.0312 48 33.8906 48
Q26.2656 48 22.1875 43.0469
Q18.1094 38.0938 18.1094 28.8125
L18.1094 0
L9.07812 0
L9.07812 54.6875
L18.1094 54.6875
L18.1094 46.1875
Q20.9531 51.1719 25.4844 53.5781
Q30.0312 56 36.5312 56
Q37.4531 56 38.5781 55.875
Q39.7031 55.7656 41.0625 55.5156
z
" id="DejaVuSans-72"/>
    </defs>
    <g transform="translate(388.504980975 405.09759182)scale(0.12 -0.12)">
     <use xlink:href="#DejaVuSans-72"/>
     <use x="41.11328125" xlink:href="#DejaVuSans-30"/>
    </g>
   </g>
   <g id="text_42">
    <!-- r1 -->
    <g transform="translate(349.162252936 214.017420088)scale(0.12 -0.12)">
     <use xlink:href="#DejaVuSans-72"/>
     <use x="41.11328125" xlink:href="#DejaVuSans-31"/>
    </g>
   </g>
   <g id="text_43">
    <!-- r2 -->
    <g transform="translate(296.925811866 368.030294271)scale(0.12 -0.12)">
     <use xlink:href="#DejaVuSans-72"/>
     <use x="41.11328125" xlink:href="#DejaVuSans-32"/>
    </g>
   </g>
   <g id="text_44">
    <!-- r3 -->
    <g transform="translate(238.131556852 205.46796837)scale(0.12 -0.12)">
     <use xlink:href="#DejaVuSans-72"/>
     <use x="41.11328125" xlink:href="#DejaVuSans-33"/>
    </g>
   </g>
   <g id="text_45">
    <!-- r4 -->
    <g transform="translate(233.348571141 409.633989042)scale(0.12 -0.12)">
     <use xlink:href="#DejaVuSans-72"/>
     <use x="41.11328125" xlink:href="#DejaVuSans-34"/>
    </g>
   </g>
   <g id="text_46">
    <!-- r5 -->
    <g transform="translate(309.623241328 425.3930174)scale(0.12 -0.12)">
     <use xlink:href="#DejaVuSans-72"/>
     <use x="41.11328125" xlink:href="#DejaVuSans-35"/>
    </g>
   </g>
   <g id="text_47">
    <!-- r6 -->
    <g transform="translate(186.283048004 307.617599725)scale(0.12 -0.12)">
     <use xlink:href="#DejaVuSans-72"/>
     <use x="41.11328125" xlink:href="#DejaVuSans-36"/>
    </g>
   </g>
   <g id="text_48">
    <!-- r7 -->
    <g transform="translate(275.89306625 271.373382377)scale(0.12 -0.12)">
     <use xlink:href="#DejaVuSans-72"/>
     <use x="41.11328125" xlink:href="#DejaVuSans-37"/>
    </g>
   </g>
   <g id="text_49">
    <!-- r8 -->
    <g transform="translate(266.121658864 330.25502095)scale(0.12 -0.12)">
     <use xlink:href="#DejaVuSans-72"/>
     <use x="41.11328125" xlink:href="#DejaVuSans-38"/>
    </g>
   </g>
   <g id="text_50">
    <!-- r9 -->
    <g transform="translate(358.60011229 314.900157461)scale(0.12 -0.12)">
     <use xlink:href="#DejaVuSans-72"/>
     <use x="41.11328125" xlink:href="#DejaVuSans-39"/>
    </g>
   </g>
  </g>
 </g>
 <defs>
  <clipPath id="pb27f3bcf95">
   <rect height="480.0" width="465.0" x="75.0" y="60.0"/>
  </clipPath>
 </defs>
</svg>
