<?xml version="1.0" encoding="utf-8" standalone="no"?>
<!DOCTYPE svg PUBLIC "-//W3C//DTD SVG 1.1//EN"
  "http://www.w3.org/Graphics/SVG/1.1/DTD/svg11.dtd">
<!-- Created with matplotlib (http://matplotlib.org/) -->
<svg height="600pt" version="1.1" viewBox="0 0 600 600" width="600pt" xmlns="http://www.w3.org/2000/svg" xmlns:xlink="http://www.w3.org/1999/xlink">
 <defs>
  <style type="text/css">
*{stroke-linecap:butt;stroke-linejoin:round;}
  </style>
 </defs>
 <g id="figure_1">
  <g id="patch_1">
   <path d="
M0 600
L600 600
L600 0
L0 0
z
" style="fill:#ffffff;"/>
  </g>
  <g id="axes_1">
   <g id="patch_2">
    <path d="
M75 540
L540 540
L540 60
L75 60
z
" style="fill:#ffffff;"/>
   </g>
   <g id="PathCollection_1">
    <defs>
     <path d="
M0 1.11803
C0.296506 1.11803 0.580908 1.00023 0.790569 0.790569
C1.00023 0.580908 1.11803 0.296506 1.11803 0
C1.11803 -0.296506 1.00023 -0.580908 0.790569 -0.790569
C0.580908 -1.00023 0.296506 -1.11803 0 -1.11803
C-0.296506 -1.11803 -0.580908 -1.00023 -0.790569 -0.790569
C-1.00023 -0.580908 -1.11803 -0.296506 -1.11803 0
C-1.11803 0.296506 -1.00023 0.580908 -0.790569 0.790569
C-0.580908 1.00023 -0.296506 1.11803 0 1.11803
z
" id="C0_0_af07e0942b"/>
    </defs>
    <g clip-path="url(#pb27f3bcf95)">
     <use style="fill:#0000ff;stroke:#000000;" x="259.08876055" xlink:href="#C0_0_af07e0942b" y="470.468799068"/>
    </g>
    <g clip-path="url(#pb27f3bcf95)">
     <use style="fill:#0000ff;stroke:#000000;" x="433.364521333" xlink:href="#C0_0_af07e0942b" y="342.598191446"/>
    </g>
    <g clip-path="url(#pb27f3bcf95)">
     <use style="fill:#0000ff;stroke:#000000;" x="222.519037006" xlink:href="#C0_0_af07e0942b" y="351.769023578"/>
    </g>
    <g clip-path="url(#pb27f3bcf95)">
     <use style="fill:#0000ff;stroke:#000000;" x="428.005442808" xlink:href="#C0_0_af07e0942b" y="273.861746873"/>
    </g>
    <g clip-path="url(#pb27f3bcf95)">
     <use style="fill:#0000ff;stroke:#000000;" x="254.945466072" xlink:href="#C0_0_af07e0942b" y="369.77005714"/>
    </g>
    <g clip-path="url(#pb27f3bcf95)">
     <use style="fill:#0000ff;stroke:#000000;" x="272.783569357" xlink:href="#C0_0_af07e0942b" y="403.048413603"/>
    </g>
    <g clip-path="url(#pb27f3bcf95)">
     <use style="fill:#0000ff;stroke:#000000;" x="260.836919835" xlink:href="#C0_0_af07e0942b" y="150.98403066"/>
    </g>
    <g clip-path="url(#pb27f3bcf95)">
     <use style="fill:#0000ff;stroke:#000000;" x="297.701331068" xlink:href="#C0_0_af07e0942b" y="171.568048551"/>
    </g>
    <g clip-path="url(#pb27f3bcf95)">
     <use style="fill:#0000ff;stroke:#000000;" x="177.336924439" xlink:href="#C0_0_af07e0942b" y="436.085710028"/>
    </g>
    <g clip-path="url(#pb27f3bcf95)">
     <use style="fill:#0000ff;stroke:#000000;" x="139.465978328" xlink:href="#C0_0_af07e0942b" y="352.903171919"/>
    </g>
    <g clip-path="url(#pb27f3bcf95)">
     <use style="fill:#0000ff;stroke:#000000;" x="173.013337605" xlink:href="#C0_0_af07e0942b" y="375.188825571"/>
    </g>
    <g clip-path="url(#pb27f3bcf95)">
     <use style="fill:#0000ff;stroke:#000000;" x="273.752902956" xlink:href="#C0_0_af07e0942b" y="461.107094307"/>
    </g>
    <g clip-path="url(#pb27f3bcf95)">
     <use style="fill:#0000ff;stroke:#000000;" x="348.325144077" xlink:href="#C0_0_af07e0942b" y="368.583940277"/>
    </g>
    <g clip-path="url(#pb27f3bcf95)">
     <use style="fill:#0000ff;stroke:#000000;" x="428.69890957" xlink:href="#C0_0_af07e0942b" y="440.375614142"/>
    </g>
    <g clip-path="url(#pb27f3bcf95)">
     <use style="fill:#0000ff;stroke:#000000;" x="343.63134892" xlink:href="#C0_0_af07e0942b" y="468.832621415"/>
    </g>
    <g clip-path="url(#pb27f3bcf95)">
     <use style="fill:#0000ff;stroke:#000000;" x="311.649067958" xlink:href="#C0_0_af07e0942b" y="330.718766067"/>
    </g>
    <g clip-path="url(#pb27f3bcf95)">
     <use style="fill:#0000ff;stroke:#000000;" x="341.329154498" xlink:href="#C0_0_af07e0942b" y="155.512224906"/>
    </g>
    <g clip-path="url(#pb27f3bcf95)">
     <use style="fill:#0000ff;stroke:#000000;" x="411.731346423" xlink:href="#C0_0_af07e0942b" y="194.730197855"/>
    </g>
    <g clip-path="url(#pb27f3bcf95)">
     <use style="fill:#0000ff;stroke:#000000;" x="181.761951067" xlink:href="#C0_0_af07e0942b" y="184.443490684"/>
    </g>
    <g clip-path="url(#pb27f3bcf95)">
     <use style="fill:#0000ff;stroke:#000000;" x="139.948865914" xlink:href="#C0_0_af07e0942b" y="263.426680957"/>
    </g>
    <g clip-path="url(#pb27f3bcf95)">
     <use style="fill:#0000ff;stroke:#000000;" x="173.275028743" xlink:href="#C0_0_af07e0942b" y="241.60088651"/>
    </g>
    <g clip-path="url(#pb27f3bcf95)">
     <use style="fill:#0000ff;stroke:#000000;" x="293.449745253" xlink:href="#C0_0_af07e0942b" y="214.794002237"/>
    </g>
    <g clip-path="url(#pb27f3bcf95)">
     <use style="fill:#0000ff;stroke:#000000;" x="307.5" xlink:href="#C0_0_af07e0942b" y="300.0"/>
    </g>
    <g clip-path="url(#pb27f3bcf95)">
     <use style="fill:#0000ff;stroke:#000000;" x="322.756497564" xlink:href="#C0_0_af07e0942b" y="273.638300105"/>
    </g>
    <g clip-path="url(#pb27f3bcf95)">
     <use style="fill:#0000ff;stroke:#000000;" x="233.994723287" xlink:href="#C0_0_af07e0942b" y="299.017257965"/>
    </g>
    <g clip-path="url(#pb27f3bcf95)">
     <use style="fill:#0000ff;stroke:#000000;" x="221.764365144" xlink:href="#C0_0_af07e0942b" y="269.417351577"/>
    </g>
   </g>
   <g id="PathCollection_2">
    <defs>
     <path d="
M1.3692e-16 -2.23607
L-0.502029 -0.690983
L-2.12663 -0.690983
L-0.812299 0.263932
L-1.31433 1.80902
L-1.56896e-16 0.854102
L1.31433 1.80902
L0.812299 0.263932
L2.12663 -0.690983
L0.502029 -0.690983
z
" id="C1_0_39d883b677"/>
    </defs>
    <g clip-path="url(#pb27f3bcf95)">
     <use style="fill:#0000ff;stroke:#000000;" x="430.348311318" xlink:href="#C1_0_39d883b677" y="268.221925268"/>
    </g>
    <g clip-path="url(#pb27f3bcf95)">
     <use style="fill:#0000ff;stroke:#000000;" x="414.465890915" xlink:href="#C1_0_39d883b677" y="192.617272917"/>
    </g>
    <g clip-path="url(#pb27f3bcf95)">
     <use style="fill:#0000ff;stroke:#000000;" x="341.58744058" xlink:href="#C1_0_39d883b677" y="152.01988503"/>
    </g>
    <g clip-path="url(#pb27f3bcf95)">
     <use style="fill:#0000ff;stroke:#000000;" x="297.961342038" xlink:href="#C1_0_39d883b677" y="168.075073885"/>
    </g>
    <g clip-path="url(#pb27f3bcf95)">
     <use style="fill:#0000ff;stroke:#000000;" x="261.020051849" xlink:href="#C1_0_39d883b677" y="147.448129015"/>
    </g>
    <g clip-path="url(#pb27f3bcf95)">
     <use style="fill:#0000ff;stroke:#000000;" x="178.963438726" xlink:href="#C1_0_39d883b677" y="182.16922988"/>
    </g>
    <g clip-path="url(#pb27f3bcf95)">
     <use style="fill:#0000ff;stroke:#000000;" x="170.4243204" xlink:href="#C1_0_39d883b677" y="239.678153319"/>
    </g>
    <g clip-path="url(#pb27f3bcf95)">
     <use style="fill:#0000ff;stroke:#000000;" x="136.858346836" xlink:href="#C1_0_39d883b677" y="261.661003346"/>
    </g>
    <g clip-path="url(#pb27f3bcf95)">
     <use style="fill:#0000ff;stroke:#000000;" x="136.356541046" xlink:href="#C1_0_39d883b677" y="354.64293653"/>
    </g>
    <g clip-path="url(#pb27f3bcf95)">
     <use style="fill:#0000ff;stroke:#000000;" x="170.034713751" xlink:href="#C1_0_39d883b677" y="377.015490101"/>
    </g>
    <g clip-path="url(#pb27f3bcf95)">
     <use style="fill:#0000ff;stroke:#000000;" x="174.385817874" xlink:href="#C1_0_39d883b677" y="438.299950247"/>
    </g>
    <g clip-path="url(#pb27f3bcf95)">
     <use style="fill:#0000ff;stroke:#000000;" x="259.37877883" xlink:href="#C1_0_39d883b677" y="474.046187683"/>
    </g>
    <g clip-path="url(#pb27f3bcf95)">
     <use style="fill:#0000ff;stroke:#000000;" x="274.479556354" xlink:href="#C1_0_39d883b677" y="464.405731601"/>
    </g>
    <g clip-path="url(#pb27f3bcf95)">
     <use style="fill:#0000ff;stroke:#000000;" x="343.958341558" xlink:href="#C1_0_39d883b677" y="472.087073553"/>
    </g>
    <g clip-path="url(#pb27f3bcf95)">
     <use style="fill:#0000ff;stroke:#000000;" x="431.689899745" xlink:href="#C1_0_39d883b677" y="442.738899345"/>
    </g>
    <g clip-path="url(#pb27f3bcf95)">
     <use style="fill:#0000ff;stroke:#000000;" x="436.470658193" xlink:href="#C1_0_39d883b677" y="342.548342698"/>
    </g>
    <g clip-path="url(#pb27f3bcf95)">
     <use style="fill:#0000ff;stroke:#000000;" x="431.810497211" xlink:href="#C1_0_39d883b677" y="278.576496673"/>
    </g>
   </g>
   <g id="patch_3">
    <path clip-path="url(#pb27f3bcf95)" d="
M428.699 440.376
L433.365 342.598
L348.325 368.584
L343.631 468.833
z
" style="fill:#0000ff;opacity:0.2;stroke:#000000;"/>
   </g>
   <g id="patch_4">
    <path clip-path="url(#pb27f3bcf95)" d="
M322.756 273.638
L428.005 273.862
L411.731 194.73
L341.329 155.512
L297.701 171.568
L293.45 214.794
z
" style="fill:#008000;opacity:0.2;stroke:#000000;"/>
   </g>
   <g id="patch_5">
    <path clip-path="url(#pb27f3bcf95)" d="
M311.649 330.719
L254.945 369.77
L272.784 403.048
L348.325 368.584
z
" style="fill:#ff0000;opacity:0.2;stroke:#000000;"/>
   </g>
   <g id="patch_6">
    <path clip-path="url(#pb27f3bcf95)" d="
M293.45 214.794
L297.701 171.568
L260.837 150.984
L181.762 184.443
L173.275 241.601
L221.764 269.417
z
" style="fill:#00bfbf;opacity:0.2;stroke:#000000;"/>
   </g>
   <g id="patch_7">
    <path clip-path="url(#pb27f3bcf95)" d="
M254.945 369.77
L222.519 351.769
L173.013 375.189
L177.337 436.086
L259.089 470.469
L273.753 461.107
L272.784 403.048
z
" style="fill:#bf00bf;opacity:0.2;stroke:#000000;"/>
   </g>
   <g id="patch_8">
    <path clip-path="url(#pb27f3bcf95)" d="
M272.784 403.048
L273.753 461.107
L343.631 468.833
L348.325 368.584
z
" style="fill:#bfbf00;opacity:0.2;stroke:#000000;"/>
   </g>
   <g id="patch_9">
    <path clip-path="url(#pb27f3bcf95)" d="
M221.764 269.417
L173.275 241.601
L139.949 263.427
L139.466 352.903
L173.013 375.189
L222.519 351.769
L233.995 299.017
z
" style="opacity:0.2;stroke:#000000;"/>
   </g>
   <g id="patch_10">
    <path clip-path="url(#pb27f3bcf95)" d="
M233.995 299.017
L307.5 300
L322.756 273.638
L293.45 214.794
L221.764 269.417
z
" style="fill:#0000ff;opacity:0.2;stroke:#000000;"/>
   </g>
   <g id="patch_11">
    <path clip-path="url(#pb27f3bcf95)" d="
M311.649 330.719
L307.5 300
L233.995 299.017
L222.519 351.769
L254.945 369.77
z
" style="fill:#008000;opacity:0.2;stroke:#000000;"/>
   </g>
   <g id="patch_12">
    <path clip-path="url(#pb27f3bcf95)" d="
M348.325 368.584
L433.365 342.598
L428.005 273.862
L322.756 273.638
L307.5 300
L311.649 330.719
z
" style="fill:#ff0000;opacity:0.2;stroke:#000000;"/>
   </g>
   <g id="line2d_1">
    <path clip-path="url(#pb27f3bcf95)" d="
M430.348 268.222
L414.466 192.617
L341.587 152.02
L297.961 168.075
L261.02 147.448
L178.963 182.169
L170.424 239.678
L136.858 261.661
L136.357 354.643
L170.035 377.015
L174.386 438.3
L259.379 474.046
L274.48 464.406
L343.958 472.087
L431.69 442.739
L436.471 342.548
L431.81 278.576" style="fill:none;stroke:#000000;stroke-linecap:square;"/>
   </g>
   <g id="matplotlib.axis_1">
    <g id="xtick_1">
     <g id="line2d_2">
      <path clip-path="url(#pb27f3bcf95)" d="
M75 540
L75 60" style="fill:none;stroke:#000000;stroke-dasharray:1.000000,3.000000;stroke-dashoffset:0.0;stroke-width:0.5;"/>
     </g>
     <g id="line2d_3">
      <defs>
       <path d="
M0 0
L0 -4" id="mc7db9fdffb" style="stroke:#000000;stroke-width:0.5;"/>
      </defs>
      <g>
       <use style="stroke:#000000;stroke-width:0.5;" x="75.0" xlink:href="#mc7db9fdffb" y="540.0"/>
      </g>
     </g>
     <g id="line2d_4">
      <defs>
       <path d="
M0 0
L0 4" id="m5a7d422ac3" style="stroke:#000000;stroke-width:0.5;"/>
      </defs>
      <g>
       <use style="stroke:#000000;stroke-width:0.5;" x="75.0" xlink:href="#m5a7d422ac3" y="60.0"/>
      </g>
     </g>
     <g id="text_1">
      <!-- −300 -->
      <defs>
       <path d="
M40.5781 39.3125
Q47.6562 37.7969 51.625 33
Q55.6094 28.2188 55.6094 21.1875
Q55.6094 10.4062 48.1875 4.48438
Q40.7656 -1.42188 27.0938 -1.42188
Q22.5156 -1.42188 17.6562 -0.515625
Q12.7969 0.390625 7.625 2.20312
L7.625 11.7188
Q11.7188 9.32812 16.5938 8.10938
Q21.4844 6.89062 26.8125 6.89062
Q36.0781 6.89062 40.9375 10.5469
Q45.7969 14.2031 45.7969 21.1875
Q45.7969 27.6406 41.2812 31.2656
Q36.7656 34.9062 28.7188 34.9062
L20.2188 34.9062
L20.2188 43.0156
L29.1094 43.0156
Q36.375 43.0156 40.2344 45.9219
Q44.0938 48.8281 44.0938 54.2969
Q44.0938 59.9062 40.1094 62.9062
Q36.1406 65.9219 28.7188 65.9219
Q24.6562 65.9219 20.0156 65.0312
Q15.375 64.1562 9.8125 62.3125
L9.8125 71.0938
Q15.4375 72.6562 20.3438 73.4375
Q25.25 74.2188 29.5938 74.2188
Q40.8281 74.2188 47.3594 69.1094
Q53.9062 64.0156 53.9062 55.3281
Q53.9062 49.2656 50.4375 45.0938
Q46.9688 40.9219 40.5781 39.3125" id="DejaVuSans-33"/>
       <path d="
M31.7812 66.4062
Q24.1719 66.4062 20.3281 58.9062
Q16.5 51.4219 16.5 36.375
Q16.5 21.3906 20.3281 13.8906
Q24.1719 6.39062 31.7812 6.39062
Q39.4531 6.39062 43.2812 13.8906
Q47.125 21.3906 47.125 36.375
Q47.125 51.4219 43.2812 58.9062
Q39.4531 66.4062 31.7812 66.4062
M31.7812 74.2188
Q44.0469 74.2188 50.5156 64.5156
Q56.9844 54.8281 56.9844 36.375
Q56.9844 17.9688 50.5156 8.26562
Q44.0469 -1.42188 31.7812 -1.42188
Q19.5312 -1.42188 13.0625 8.26562
Q6.59375 17.9688 6.59375 36.375
Q6.59375 54.8281 13.0625 64.5156
Q19.5312 74.2188 31.7812 74.2188" id="DejaVuSans-30"/>
       <path d="
M10.5938 35.5
L73.1875 35.5
L73.1875 27.2031
L10.5938 27.2031
z
" id="DejaVuSans-2212"/>
      </defs>
      <g transform="translate(59.55375 553.118125)scale(0.12 -0.12)">
       <use xlink:href="#DejaVuSans-2212"/>
       <use x="83.7890625" xlink:href="#DejaVuSans-33"/>
       <use x="147.412109375" xlink:href="#DejaVuSans-30"/>
       <use x="211.03515625" xlink:href="#DejaVuSans-30"/>
      </g>
     </g>
    </g>
    <g id="xtick_2">
     <g id="line2d_5">
      <path clip-path="url(#pb27f3bcf95)" d="
M152.5 540
L152.5 60" style="fill:none;stroke:#000000;stroke-dasharray:1.000000,3.000000;stroke-dashoffset:0.0;stroke-width:0.5;"/>
     </g>
     <g id="line2d_6">
      <g>
       <use style="stroke:#000000;stroke-width:0.5;" x="152.5" xlink:href="#mc7db9fdffb" y="540.0"/>
      </g>
     </g>
     <g id="line2d_7">
      <g>
       <use style="stroke:#000000;stroke-width:0.5;" x="152.5" xlink:href="#m5a7d422ac3" y="60.0"/>
      </g>
     </g>
     <g id="text_2">
      <!-- −200 -->
      <defs>
       <path d="
M19.1875 8.29688
L53.6094 8.29688
L53.6094 0
L7.32812 0
L7.32812 8.29688
Q12.9375 14.1094 22.625 23.8906
Q32.3281 33.6875 34.8125 36.5312
Q39.5469 41.8438 41.4219 45.5312
Q43.3125 49.2188 43.3125 52.7812
Q43.3125 58.5938 39.2344 62.25
Q35.1562 65.9219 28.6094 65.9219
Q23.9688 65.9219 18.8125 64.3125
Q13.6719 62.7031 7.8125 59.4219
L7.8125 69.3906
Q13.7656 71.7812 18.9375 73
Q24.125 74.2188 28.4219 74.2188
Q39.75 74.2188 46.4844 68.5469
Q53.2188 62.8906 53.2188 53.4219
Q53.2188 48.9219 51.5312 44.8906
Q49.8594 40.875 45.4062 35.4062
Q44.1875 33.9844 37.6406 27.2188
Q31.1094 20.4531 19.1875 8.29688" id="DejaVuSans-32"/>
      </defs>
      <g transform="translate(137.05375 553.118125)scale(0.12 -0.12)">
       <use xlink:href="#DejaVuSans-2212"/>
       <use x="83.7890625" xlink:href="#DejaVuSans-32"/>
       <use x="147.412109375" xlink:href="#DejaVuSans-30"/>
       <use x="211.03515625" xlink:href="#DejaVuSans-30"/>
      </g>
     </g>
    </g>
    <g id="xtick_3">
     <g id="line2d_8">
      <path clip-path="url(#pb27f3bcf95)" d="
M230 540
L230 60" style="fill:none;stroke:#000000;stroke-dasharray:1.000000,3.000000;stroke-dashoffset:0.0;stroke-width:0.5;"/>
     </g>
     <g id="line2d_9">
      <g>
       <use style="stroke:#000000;stroke-width:0.5;" x="230.0" xlink:href="#mc7db9fdffb" y="540.0"/>
      </g>
     </g>
     <g id="line2d_10">
      <g>
       <use style="stroke:#000000;stroke-width:0.5;" x="230.0" xlink:href="#m5a7d422ac3" y="60.0"/>
      </g>
     </g>
     <g id="text_3">
      <!-- −100 -->
      <defs>
       <path d="
M12.4062 8.29688
L28.5156 8.29688
L28.5156 63.9219
L10.9844 60.4062
L10.9844 69.3906
L28.4219 72.9062
L38.2812 72.9062
L38.2812 8.29688
L54.3906 8.29688
L54.3906 0
L12.4062 0
z
" id="DejaVuSans-31"/>
      </defs>
      <g transform="translate(214.55375 553.118125)scale(0.12 -0.12)">
       <use xlink:href="#DejaVuSans-2212"/>
       <use x="83.7890625" xlink:href="#DejaVuSans-31"/>
       <use x="147.412109375" xlink:href="#DejaVuSans-30"/>
       <use x="211.03515625" xlink:href="#DejaVuSans-30"/>
      </g>
     </g>
    </g>
    <g id="xtick_4">
     <g id="line2d_11">
      <path clip-path="url(#pb27f3bcf95)" d="
M307.5 540
L307.5 60" style="fill:none;stroke:#000000;stroke-dasharray:1.000000,3.000000;stroke-dashoffset:0.0;stroke-width:0.5;"/>
     </g>
     <g id="line2d_12">
      <g>
       <use style="stroke:#000000;stroke-width:0.5;" x="307.5" xlink:href="#mc7db9fdffb" y="540.0"/>
      </g>
     </g>
     <g id="line2d_13">
      <g>
       <use style="stroke:#000000;stroke-width:0.5;" x="307.5" xlink:href="#m5a7d422ac3" y="60.0"/>
      </g>
     </g>
     <g id="text_4">
      <!-- 0 -->
      <g transform="translate(304.4765625 553.118125)scale(0.12 -0.12)">
       <use xlink:href="#DejaVuSans-30"/>
      </g>
     </g>
    </g>
    <g id="xtick_5">
     <g id="line2d_14">
      <path clip-path="url(#pb27f3bcf95)" d="
M385 540
L385 60" style="fill:none;stroke:#000000;stroke-dasharray:1.000000,3.000000;stroke-dashoffset:0.0;stroke-width:0.5;"/>
     </g>
     <g id="line2d_15">
      <g>
       <use style="stroke:#000000;stroke-width:0.5;" x="385.0" xlink:href="#mc7db9fdffb" y="540.0"/>
      </g>
     </g>
     <g id="line2d_16">
      <g>
       <use style="stroke:#000000;stroke-width:0.5;" x="385.0" xlink:href="#m5a7d422ac3" y="60.0"/>
      </g>
     </g>
     <g id="text_5">
      <!-- 100 -->
      <g transform="translate(374.605 553.118125)scale(0.12 -0.12)">
       <use xlink:href="#DejaVuSans-31"/>
       <use x="63.623046875" xlink:href="#DejaVuSans-30"/>
       <use x="127.24609375" xlink:href="#DejaVuSans-30"/>
      </g>
     </g>
    </g>
    <g id="xtick_6">
     <g id="line2d_17">
      <path clip-path="url(#pb27f3bcf95)" d="
M462.5 540
L462.5 60" style="fill:none;stroke:#000000;stroke-dasharray:1.000000,3.000000;stroke-dashoffset:0.0;stroke-width:0.5;"/>
     </g>
     <g id="line2d_18">
      <g>
       <use style="stroke:#000000;stroke-width:0.5;" x="462.5" xlink:href="#mc7db9fdffb" y="540.0"/>
      </g>
     </g>
     <g id="line2d_19">
      <g>
       <use style="stroke:#000000;stroke-width:0.5;" x="462.5" xlink:href="#m5a7d422ac3" y="60.0"/>
      </g>
     </g>
     <g id="text_6">
      <!-- 200 -->
      <g transform="translate(451.885625 553.118125)scale(0.12 -0.12)">
       <use xlink:href="#DejaVuSans-32"/>
       <use x="63.623046875" xlink:href="#DejaVuSans-30"/>
       <use x="127.24609375" xlink:href="#DejaVuSans-30"/>
      </g>
     </g>
    </g>
    <g id="xtick_7">
     <g id="line2d_20">
      <path clip-path="url(#pb27f3bcf95)" d="
M540 540
L540 60" style="fill:none;stroke:#000000;stroke-dasharray:1.000000,3.000000;stroke-dashoffset:0.0;stroke-width:0.5;"/>
     </g>
     <g id="line2d_21">
      <g>
       <use style="stroke:#000000;stroke-width:0.5;" x="540.0" xlink:href="#mc7db9fdffb" y="540.0"/>
      </g>
     </g>
     <g id="line2d_22">
      <g>
       <use style="stroke:#000000;stroke-width:0.5;" x="540.0" xlink:href="#m5a7d422ac3" y="60.0"/>
      </g>
     </g>
     <g id="text_7">
      <!-- 300 -->
      <g transform="translate(529.4034375 553.118125)scale(0.12 -0.12)">
       <use xlink:href="#DejaVuSans-33"/>
       <use x="63.623046875" xlink:href="#DejaVuSans-30"/>
       <use x="127.24609375" xlink:href="#DejaVuSans-30"/>
      </g>
     </g>
    </g>
   </g>
   <g id="matplotlib.axis_2">
    <g id="ytick_1">
     <g id="line2d_23">
      <path clip-path="url(#pb27f3bcf95)" d="
M75 540
L540 540" style="fill:none;stroke:#000000;stroke-dasharray:1.000000,3.000000;stroke-dashoffset:0.0;stroke-width:0.5;"/>
     </g>
     <g id="line2d_24">
      <defs>
       <path d="
M0 0
L4 0" id="md7965d1ba0" style="stroke:#000000;stroke-width:0.5;"/>
      </defs>
      <g>
       <use style="stroke:#000000;stroke-width:0.5;" x="75.0" xlink:href="#md7965d1ba0" y="540.0"/>
      </g>
     </g>
     <g id="line2d_25">
      <defs>
       <path d="
M0 0
L-4 0" id="md9a1c1a7cd" style="stroke:#000000;stroke-width:0.5;"/>
      </defs>
      <g>
       <use style="stroke:#000000;stroke-width:0.5;" x="540.0" xlink:href="#md9a1c1a7cd" y="540.0"/>
      </g>
     </g>
     <g id="text_8">
      <!-- −300 -->
      <g transform="translate(40.1075 543.31125)scale(0.12 -0.12)">
       <use xlink:href="#DejaVuSans-2212"/>
       <use x="83.7890625" xlink:href="#DejaVuSans-33"/>
       <use x="147.412109375" xlink:href="#DejaVuSans-30"/>
       <use x="211.03515625" xlink:href="#DejaVuSans-30"/>
      </g>
     </g>
    </g>
    <g id="ytick_2">
     <g id="line2d_26">
      <path clip-path="url(#pb27f3bcf95)" d="
M75 460
L540 460" style="fill:none;stroke:#000000;stroke-dasharray:1.000000,3.000000;stroke-dashoffset:0.0;stroke-width:0.5;"/>
     </g>
     <g id="line2d_27">
      <g>
       <use style="stroke:#000000;stroke-width:0.5;" x="75.0" xlink:href="#md7965d1ba0" y="460.0"/>
      </g>
     </g>
     <g id="line2d_28">
      <g>
       <use style="stroke:#000000;stroke-width:0.5;" x="540.0" xlink:href="#md9a1c1a7cd" y="460.0"/>
      </g>
     </g>
     <g id="text_9">
      <!-- −200 -->
      <g transform="translate(40.1075 463.31125)scale(0.12 -0.12)">
       <use xlink:href="#DejaVuSans-2212"/>
       <use x="83.7890625" xlink:href="#DejaVuSans-32"/>
       <use x="147.412109375" xlink:href="#DejaVuSans-30"/>
       <use x="211.03515625" xlink:href="#DejaVuSans-30"/>
      </g>
     </g>
    </g>
    <g id="ytick_3">
     <g id="line2d_29">
      <path clip-path="url(#pb27f3bcf95)" d="
M75 380
L540 380" style="fill:none;stroke:#000000;stroke-dasharray:1.000000,3.000000;stroke-dashoffset:0.0;stroke-width:0.5;"/>
     </g>
     <g id="line2d_30">
      <g>
       <use style="stroke:#000000;stroke-width:0.5;" x="75.0" xlink:href="#md7965d1ba0" y="380.0"/>
      </g>
     </g>
     <g id="line2d_31">
      <g>
       <use style="stroke:#000000;stroke-width:0.5;" x="540.0" xlink:href="#md9a1c1a7cd" y="380.0"/>
      </g>
     </g>
     <g id="text_10">
      <!-- −100 -->
      <g transform="translate(40.1075 383.31125)scale(0.12 -0.12)">
       <use xlink:href="#DejaVuSans-2212"/>
       <use x="83.7890625" xlink:href="#DejaVuSans-31"/>
       <use x="147.412109375" xlink:href="#DejaVuSans-30"/>
       <use x="211.03515625" xlink:href="#DejaVuSans-30"/>
      </g>
     </g>
    </g>
    <g id="ytick_4">
     <g id="line2d_32">
      <path clip-path="url(#pb27f3bcf95)" d="
M75 300
L540 300" style="fill:none;stroke:#000000;stroke-dasharray:1.000000,3.000000;stroke-dashoffset:0.0;stroke-width:0.5;"/>
     </g>
     <g id="line2d_33">
      <g>
       <use style="stroke:#000000;stroke-width:0.5;" x="75.0" xlink:href="#md7965d1ba0" y="300.0"/>
      </g>
     </g>
     <g id="line2d_34">
      <g>
       <use style="stroke:#000000;stroke-width:0.5;" x="540.0" xlink:href="#md9a1c1a7cd" y="300.0"/>
      </g>
     </g>
     <g id="text_11">
      <!-- 0 -->
      <g transform="translate(64.953125 303.31125)scale(0.12 -0.12)">
       <use xlink:href="#DejaVuSans-30"/>
      </g>
     </g>
    </g>
    <g id="ytick_5">
     <g id="line2d_35">
      <path clip-path="url(#pb27f3bcf95)" d="
M75 220
L540 220" style="fill:none;stroke:#000000;stroke-dasharray:1.000000,3.000000;stroke-dashoffset:0.0;stroke-width:0.5;"/>
     </g>
     <g id="line2d_36">
      <g>
       <use style="stroke:#000000;stroke-width:0.5;" x="75.0" xlink:href="#md7965d1ba0" y="220.0"/>
      </g>
     </g>
     <g id="line2d_37">
      <g>
       <use style="stroke:#000000;stroke-width:0.5;" x="540.0" xlink:href="#md9a1c1a7cd" y="220.0"/>
      </g>
     </g>
     <g id="text_12">
      <!-- 100 -->
      <g transform="translate(50.21 223.31125)scale(0.12 -0.12)">
       <use xlink:href="#DejaVuSans-31"/>
       <use x="63.623046875" xlink:href="#DejaVuSans-30"/>
       <use x="127.24609375" xlink:href="#DejaVuSans-30"/>
      </g>
     </g>
    </g>
    <g id="ytick_6">
     <g id="line2d_38">
      <path clip-path="url(#pb27f3bcf95)" d="
M75 140
L540 140" style="fill:none;stroke:#000000;stroke-dasharray:1.000000,3.000000;stroke-dashoffset:0.0;stroke-width:0.5;"/>
     </g>
     <g id="line2d_39">
      <g>
       <use style="stroke:#000000;stroke-width:0.5;" x="75.0" xlink:href="#md7965d1ba0" y="140.0"/>
      </g>
     </g>
     <g id="line2d_40">
      <g>
       <use style="stroke:#000000;stroke-width:0.5;" x="540.0" xlink:href="#md9a1c1a7cd" y="140.0"/>
      </g>
     </g>
     <g id="text_13">
      <!-- 200 -->
      <g transform="translate(49.77125 143.31125)scale(0.12 -0.12)">
       <use xlink:href="#DejaVuSans-32"/>
       <use x="63.623046875" xlink:href="#DejaVuSans-30"/>
       <use x="127.24609375" xlink:href="#DejaVuSans-30"/>
      </g>
     </g>
    </g>
    <g id="ytick_7">
     <g id="line2d_41">
      <path clip-path="url(#pb27f3bcf95)" d="
M75 60
L540 60" style="fill:none;stroke:#000000;stroke-dasharray:1.000000,3.000000;stroke-dashoffset:0.0;stroke-width:0.5;"/>
     </g>
     <g id="line2d_42">
      <g>
       <use style="stroke:#000000;stroke-width:0.5;" x="75.0" xlink:href="#md7965d1ba0" y="60.0"/>
      </g>
     </g>
     <g id="line2d_43">
      <g>
       <use style="stroke:#000000;stroke-width:0.5;" x="540.0" xlink:href="#md9a1c1a7cd" y="60.0"/>
      </g>
     </g>
     <g id="text_14">
      <!-- 300 -->
      <g transform="translate(49.806875 63.31125)scale(0.12 -0.12)">
       <use xlink:href="#DejaVuSans-33"/>
       <use x="63.623046875" xlink:href="#DejaVuSans-30"/>
       <use x="127.24609375" xlink:href="#DejaVuSans-30"/>
      </g>
     </g>
    </g>
   </g>
   <g id="patch_13">
    <path d="
M540 540
L540 60" style="fill:none;stroke:#000000;"/>
   </g>
   <g id="patch_14">
    <path d="
M75 540
L75 60" style="fill:none;stroke:#000000;"/>
   </g>
   <g id="patch_15">
    <path d="
M75 60
L540 60" style="fill:none;stroke:#000000;"/>
   </g>
   <g id="patch_16">
    <path d="
M75 540
L540 540" style="fill:none;stroke:#000000;"/>
   </g>
  </g>
 </g>
 <defs>
  <clipPath id="pb27f3bcf95">
   <rect height="480.0" width="465.0" x="75.0" y="60.0"/>
  </clipPath>
 </defs>
</svg>
