<?xml version="1.0" encoding="utf-8" standalone="no"?>
<!DOCTYPE svg PUBLIC "-//W3C//DTD SVG 1.1//EN"
  "http://www.w3.org/Graphics/SVG/1.1/DTD/svg11.dtd">
<!-- Created with matplotlib (http://matplotlib.org/) -->
<svg height="600pt" version="1.1" viewBox="0 0 600 600" width="600pt" xmlns="http://www.w3.org/2000/svg" xmlns:xlink="http://www.w3.org/1999/xlink">
 <defs>
  <style type="text/css">
*{stroke-linecap:butt;stroke-linejoin:round;}
  </style>
 </defs>
 <g id="figure_1">
  <g id="patch_1">
   <path d="
M0 600
L600 600
L600 0
L0 0
z
" style="fill:#ffffff;"/>
  </g>
  <g id="axes_1">
   <g id="patch_2">
    <path d="
M75 540
L540 540
L540 60
L75 60
z
" style="fill:#ffffff;"/>
   </g>
   <g id="PathCollection_1">
    <defs>
     <path d="
M0 1.11803
C0.296506 1.11803 0.580908 1.00023 0.790569 0.790569
C1.00023 0.580908 1.11803 0.296506 1.11803 0
C1.11803 -0.296506 1.00023 -0.580908 0.790569 -0.790569
C0.580908 -1.00023 0.296506 -1.11803 0 -1.11803
C-0.296506 -1.11803 -0.580908 -1.00023 -0.790569 -0.790569
C-1.00023 -0.580908 -1.11803 -0.296506 -1.11803 0
C-1.11803 0.296506 -1.00023 0.580908 -0.790569 0.790569
C-0.580908 1.00023 -0.296506 1.11803 0 1.11803
z
" id="C0_0_af07e0942b"/>
    </defs>
    <g clip-path="url(#pb27f3bcf95)">
     <use style="fill:#0000ff;stroke:#000000;" x="441.809692756" xlink:href="#C0_0_af07e0942b" y="343.996852517"/>
    </g>
    <g clip-path="url(#pb27f3bcf95)">
     <use style="fill:#0000ff;stroke:#000000;" x="133.525614152" xlink:href="#C0_0_af07e0942b" y="336.033005805"/>
    </g>
    <g clip-path="url(#pb27f3bcf95)">
     <use style="fill:#0000ff;stroke:#000000;" x="212.870017233" xlink:href="#C0_0_af07e0942b" y="292.685896591"/>
    </g>
    <g clip-path="url(#pb27f3bcf95)">
     <use style="fill:#0000ff;stroke:#000000;" x="223.894998761" xlink:href="#C0_0_af07e0942b" y="255.26243128"/>
    </g>
    <g clip-path="url(#pb27f3bcf95)">
     <use style="fill:#0000ff;stroke:#000000;" x="231.724194064" xlink:href="#C0_0_af07e0942b" y="474.681346688"/>
    </g>
    <g clip-path="url(#pb27f3bcf95)">
     <use style="fill:#0000ff;stroke:#000000;" x="167.282761743" xlink:href="#C0_0_af07e0942b" y="408.30803407"/>
    </g>
    <g clip-path="url(#pb27f3bcf95)">
     <use style="fill:#0000ff;stroke:#000000;" x="299.923859419" xlink:href="#C0_0_af07e0942b" y="219.974399904"/>
    </g>
    <g clip-path="url(#pb27f3bcf95)">
     <use style="fill:#0000ff;stroke:#000000;" x="378.327891776" xlink:href="#C0_0_af07e0942b" y="402.644962307"/>
    </g>
    <g clip-path="url(#pb27f3bcf95)">
     <use style="fill:#0000ff;stroke:#000000;" x="317.174783987" xlink:href="#C0_0_af07e0942b" y="434.316811531"/>
    </g>
    <g clip-path="url(#pb27f3bcf95)">
     <use style="fill:#0000ff;stroke:#000000;" x="427.271456463" xlink:href="#C0_0_af07e0942b" y="267.988703283"/>
    </g>
    <g clip-path="url(#pb27f3bcf95)">
     <use style="fill:#0000ff;stroke:#000000;" x="110.333799691" xlink:href="#C0_0_af07e0942b" y="251.777416745"/>
    </g>
    <g clip-path="url(#pb27f3bcf95)">
     <use style="fill:#0000ff;stroke:#000000;" x="179.360887541" xlink:href="#C0_0_af07e0942b" y="189.143140654"/>
    </g>
    <g clip-path="url(#pb27f3bcf95)">
     <use style="fill:#0000ff;stroke:#000000;" x="360.400721737" xlink:href="#C0_0_af07e0942b" y="402.524974922"/>
    </g>
    <g clip-path="url(#pb27f3bcf95)">
     <use style="fill:#0000ff;stroke:#000000;" x="277.503409906" xlink:href="#C0_0_af07e0942b" y="253.51193933"/>
    </g>
    <g clip-path="url(#pb27f3bcf95)">
     <use style="fill:#0000ff;stroke:#000000;" x="252.863215273" xlink:href="#C0_0_af07e0942b" y="341.381679453"/>
    </g>
    <g clip-path="url(#pb27f3bcf95)">
     <use style="fill:#0000ff;stroke:#000000;" x="252.492880316" xlink:href="#C0_0_af07e0942b" y="364.887424481"/>
    </g>
    <g clip-path="url(#pb27f3bcf95)">
     <use style="fill:#0000ff;stroke:#000000;" x="436.830463403" xlink:href="#C0_0_af07e0942b" y="254.458491428"/>
    </g>
    <g clip-path="url(#pb27f3bcf95)">
     <use style="fill:#0000ff;stroke:#000000;" x="406.902422141" xlink:href="#C0_0_af07e0942b" y="165.334184995"/>
    </g>
    <g clip-path="url(#pb27f3bcf95)">
     <use style="fill:#0000ff;stroke:#000000;" x="369.808356065" xlink:href="#C0_0_af07e0942b" y="269.294757528"/>
    </g>
    <g clip-path="url(#pb27f3bcf95)">
     <use style="fill:#0000ff;stroke:#000000;" x="307.5" xlink:href="#C0_0_af07e0942b" y="300.0"/>
    </g>
    <g clip-path="url(#pb27f3bcf95)">
     <use style="fill:#0000ff;stroke:#000000;" x="333.263666146" xlink:href="#C0_0_af07e0942b" y="307.081283777"/>
    </g>
    <g clip-path="url(#pb27f3bcf95)">
     <use style="fill:#0000ff;stroke:#000000;" x="323.906588283" xlink:href="#C0_0_af07e0942b" y="121.615533118"/>
    </g>
    <g clip-path="url(#pb27f3bcf95)">
     <use style="fill:#0000ff;stroke:#000000;" x="368.998874395" xlink:href="#C0_0_af07e0942b" y="164.695733034"/>
    </g>
    <g clip-path="url(#pb27f3bcf95)">
     <use style="fill:#0000ff;stroke:#000000;" x="340.165275233" xlink:href="#C0_0_af07e0942b" y="218.512778657"/>
    </g>
    <g clip-path="url(#pb27f3bcf95)">
     <use style="fill:#0000ff;stroke:#000000;" x="237.629254478" xlink:href="#C0_0_af07e0942b" y="142.687017388"/>
    </g>
    <g clip-path="url(#pb27f3bcf95)">
     <use style="fill:#0000ff;stroke:#000000;" x="265.35555415" xlink:href="#C0_0_af07e0942b" y="146.775288182"/>
    </g>
   </g>
   <g id="PathCollection_2">
    <defs>
     <path d="
M1.3692e-16 -2.23607
L-0.502029 -0.690983
L-2.12663 -0.690983
L-0.812299 0.263932
L-1.31433 1.80902
L-1.56896e-16 0.854102
L1.31433 1.80902
L0.812299 0.263932
L2.12663 -0.690983
L0.502029 -0.690983
z
" id="C1_0_39d883b677"/>
    </defs>
    <g clip-path="url(#pb27f3bcf95)">
     <use style="fill:#0000ff;stroke:#000000;" x="130.616871145" xlink:href="#C1_0_39d883b677" y="337.173632877"/>
    </g>
    <g clip-path="url(#pb27f3bcf95)">
     <use style="fill:#0000ff;stroke:#000000;" x="164.719565011" xlink:href="#C1_0_39d883b677" y="410.188485698"/>
    </g>
    <g clip-path="url(#pb27f3bcf95)">
     <use style="fill:#0000ff;stroke:#000000;" x="231.05767149" xlink:href="#C1_0_39d883b677" y="478.515332592"/>
    </g>
    <g clip-path="url(#pb27f3bcf95)">
     <use style="fill:#0000ff;stroke:#000000;" x="318.733188169" xlink:href="#C1_0_39d883b677" y="437.099802534"/>
    </g>
    <g clip-path="url(#pb27f3bcf95)">
     <use style="fill:#0000ff;stroke:#000000;" x="361.383106058" xlink:href="#C1_0_39d883b677" y="405.73161733"/>
    </g>
    <g clip-path="url(#pb27f3bcf95)">
     <use style="fill:#0000ff;stroke:#000000;" x="379.503945272" xlink:href="#C1_0_39d883b677" y="405.852900953"/>
    </g>
    <g clip-path="url(#pb27f3bcf95)">
     <use style="fill:#0000ff;stroke:#000000;" x="445.193075554" xlink:href="#C1_0_39d883b677" y="345.165534412"/>
    </g>
    <g clip-path="url(#pb27f3bcf95)">
     <use style="fill:#0000ff;stroke:#000000;" x="430.575532784" xlink:href="#C1_0_39d883b677" y="268.742758644"/>
    </g>
    <g clip-path="url(#pb27f3bcf95)">
     <use style="fill:#0000ff;stroke:#000000;" x="440.290503583" xlink:href="#C1_0_39d883b677" y="254.991789123"/>
    </g>
    <g clip-path="url(#pb27f3bcf95)">
     <use style="fill:#0000ff;stroke:#000000;" x="409.121223901" xlink:href="#C1_0_39d883b677" y="162.171132759"/>
    </g>
    <g clip-path="url(#pb27f3bcf95)">
     <use style="fill:#0000ff;stroke:#000000;" x="370.234623379" xlink:href="#C1_0_39d883b677" y="161.516122139"/>
    </g>
    <g clip-path="url(#pb27f3bcf95)">
     <use style="fill:#0000ff;stroke:#000000;" x="324.55205794" xlink:href="#C1_0_39d883b677" y="117.871982055"/>
    </g>
    <g clip-path="url(#pb27f3bcf95)">
     <use style="fill:#0000ff;stroke:#000000;" x="264.950626856" xlink:href="#C1_0_39d883b677" y="143.483099429"/>
    </g>
    <g clip-path="url(#pb27f3bcf95)">
     <use style="fill:#0000ff;stroke:#000000;" x="236.770954142" xlink:href="#C1_0_39d883b677" y="139.327978323"/>
    </g>
    <g clip-path="url(#pb27f3bcf95)">
     <use style="fill:#0000ff;stroke:#000000;" x="177.388101092" xlink:href="#C1_0_39d883b677" y="186.67265754"/>
    </g>
    <g clip-path="url(#pb27f3bcf95)">
     <use style="fill:#0000ff;stroke:#000000;" x="106.816773148" xlink:href="#C1_0_39d883b677" y="250.708156882"/>
    </g>
    <g clip-path="url(#pb27f3bcf95)">
     <use style="fill:#0000ff;stroke:#000000;" x="130.616871145" xlink:href="#C1_0_39d883b677" y="337.173632877"/>
    </g>
   </g>
   <g id="patch_3">
    <path clip-path="url(#pb27f3bcf95)" d="
M223.895 255.262
L212.87 292.686
L252.863 341.382
L307.5 300
L277.503 253.512
z
" style="fill:#0000ff;opacity:0.2;stroke:#000000;"/>
   </g>
   <g id="patch_4">
    <path clip-path="url(#pb27f3bcf95)" d="
M179.361 189.143
L110.334 251.777
L133.526 336.033
L212.87 292.686
L223.895 255.262
z
" style="fill:#008000;opacity:0.2;stroke:#000000;"/>
   </g>
   <g id="patch_5">
    <path clip-path="url(#pb27f3bcf95)" d="
M277.503 253.512
L307.5 300
L333.264 307.081
L369.808 269.295
L340.165 218.513
L299.924 219.974
z
" style="fill:#ff0000;opacity:0.2;stroke:#000000;"/>
   </g>
   <g id="patch_6">
    <path clip-path="url(#pb27f3bcf95)" d="
M252.493 364.887
L167.283 408.308
L231.724 474.681
L317.175 434.317
z
" style="fill:#00bfbf;opacity:0.2;stroke:#000000;"/>
   </g>
   <g id="patch_7">
    <path clip-path="url(#pb27f3bcf95)" d="
M307.5 300
L252.863 341.382
L252.493 364.887
L317.175 434.317
L360.401 402.525
L333.264 307.081
z
" style="fill:#bf00bf;opacity:0.2;stroke:#000000;"/>
   </g>
   <g id="patch_8">
    <path clip-path="url(#pb27f3bcf95)" d="
M333.264 307.081
L360.401 402.525
L378.328 402.645
L441.81 343.997
L427.271 267.989
L369.808 269.295
z
" style="fill:#bfbf00;opacity:0.2;stroke:#000000;"/>
   </g>
   <g id="patch_9">
    <path clip-path="url(#pb27f3bcf95)" d="
M340.165 218.513
L369.808 269.295
L427.271 267.989
L436.83 254.458
L406.902 165.334
L368.999 164.696
z
" style="opacity:0.2;stroke:#000000;"/>
   </g>
   <g id="patch_10">
    <path clip-path="url(#pb27f3bcf95)" d="
M252.863 341.382
L212.87 292.686
L133.526 336.033
L167.283 408.308
L252.493 364.887
z
" style="fill:#0000ff;opacity:0.2;stroke:#000000;"/>
   </g>
   <g id="patch_11">
    <path clip-path="url(#pb27f3bcf95)" d="
M299.924 219.974
L340.165 218.513
L368.999 164.696
L323.907 121.616
L265.356 146.775
z
" style="fill:#008000;opacity:0.2;stroke:#000000;"/>
   </g>
   <g id="patch_12">
    <path clip-path="url(#pb27f3bcf95)" d="
M299.924 219.974
L265.356 146.775
L237.629 142.687
L179.361 189.143
L223.895 255.262
L277.503 253.512
z
" style="fill:#ff0000;opacity:0.2;stroke:#000000;"/>
   </g>
   <g id="line2d_1">
    <path clip-path="url(#pb27f3bcf95)" d="
M130.617 337.174
L164.72 410.188
L231.058 478.515
L318.733 437.1
L361.383 405.732
L379.504 405.853
L445.193 345.166
L430.576 268.743
L440.291 254.992
L409.121 162.171
L370.235 161.516
L324.552 117.872
L264.951 143.483
L236.771 139.328
L177.388 186.673
L106.817 250.708
L130.617 337.174" style="fill:none;stroke:#000000;stroke-linecap:square;"/>
   </g>
   <g id="matplotlib.axis_1">
    <g id="xtick_1">
     <g id="line2d_2">
      <path clip-path="url(#pb27f3bcf95)" d="
M75 540
L75 60" style="fill:none;stroke:#000000;stroke-dasharray:1.000000,3.000000;stroke-dashoffset:0.0;stroke-width:0.5;"/>
     </g>
     <g id="line2d_3">
      <defs>
       <path d="
M0 0
L0 -4" id="mc7db9fdffb" style="stroke:#000000;stroke-width:0.5;"/>
      </defs>
      <g>
       <use style="stroke:#000000;stroke-width:0.5;" x="75.0" xlink:href="#mc7db9fdffb" y="540.0"/>
      </g>
     </g>
     <g id="line2d_4">
      <defs>
       <path d="
M0 0
L0 4" id="m5a7d422ac3" style="stroke:#000000;stroke-width:0.5;"/>
      </defs>
      <g>
       <use style="stroke:#000000;stroke-width:0.5;" x="75.0" xlink:href="#m5a7d422ac3" y="60.0"/>
      </g>
     </g>
     <g id="text_1">
      <!-- −300 -->
      <defs>
       <path d="
M40.5781 39.3125
Q47.6562 37.7969 51.625 33
Q55.6094 28.2188 55.6094 21.1875
Q55.6094 10.4062 48.1875 4.48438
Q40.7656 -1.42188 27.0938 -1.42188
Q22.5156 -1.42188 17.6562 -0.515625
Q12.7969 0.390625 7.625 2.20312
L7.625 11.7188
Q11.7188 9.32812 16.5938 8.10938
Q21.4844 6.89062 26.8125 6.89062
Q36.0781 6.89062 40.9375 10.5469
Q45.7969 14.2031 45.7969 21.1875
Q45.7969 27.6406 41.2812 31.2656
Q36.7656 34.9062 28.7188 34.9062
L20.2188 34.9062
L20.2188 43.0156
L29.1094 43.0156
Q36.375 43.0156 40.2344 45.9219
Q44.0938 48.8281 44.0938 54.2969
Q44.0938 59.9062 40.1094 62.9062
Q36.1406 65.9219 28.7188 65.9219
Q24.6562 65.9219 20.0156 65.0312
Q15.375 64.1562 9.8125 62.3125
L9.8125 71.0938
Q15.4375 72.6562 20.3438 73.4375
Q25.25 74.2188 29.5938 74.2188
Q40.8281 74.2188 47.3594 69.1094
Q53.9062 64.0156 53.9062 55.3281
Q53.9062 49.2656 50.4375 45.0938
Q46.9688 40.9219 40.5781 39.3125" id="DejaVuSans-33"/>
       <path d="
M31.7812 66.4062
Q24.1719 66.4062 20.3281 58.9062
Q16.5 51.4219 16.5 36.375
Q16.5 21.3906 20.3281 13.8906
Q24.1719 6.39062 31.7812 6.39062
Q39.4531 6.39062 43.2812 13.8906
Q47.125 21.3906 47.125 36.375
Q47.125 51.4219 43.2812 58.9062
Q39.4531 66.4062 31.7812 66.4062
M31.7812 74.2188
Q44.0469 74.2188 50.5156 64.5156
Q56.9844 54.8281 56.9844 36.375
Q56.9844 17.9688 50.5156 8.26562
Q44.0469 -1.42188 31.7812 -1.42188
Q19.5312 -1.42188 13.0625 8.26562
Q6.59375 17.9688 6.59375 36.375
Q6.59375 54.8281 13.0625 64.5156
Q19.5312 74.2188 31.7812 74.2188" id="DejaVuSans-30"/>
       <path d="
M10.5938 35.5
L73.1875 35.5
L73.1875 27.2031
L10.5938 27.2031
z
" id="DejaVuSans-2212"/>
      </defs>
      <g transform="translate(59.55375 553.118125)scale(0.12 -0.12)">
       <use xlink:href="#DejaVuSans-2212"/>
       <use x="83.7890625" xlink:href="#DejaVuSans-33"/>
       <use x="147.412109375" xlink:href="#DejaVuSans-30"/>
       <use x="211.03515625" xlink:href="#DejaVuSans-30"/>
      </g>
     </g>
    </g>
    <g id="xtick_2">
     <g id="line2d_5">
      <path clip-path="url(#pb27f3bcf95)" d="
M152.5 540
L152.5 60" style="fill:none;stroke:#000000;stroke-dasharray:1.000000,3.000000;stroke-dashoffset:0.0;stroke-width:0.5;"/>
     </g>
     <g id="line2d_6">
      <g>
       <use style="stroke:#000000;stroke-width:0.5;" x="152.5" xlink:href="#mc7db9fdffb" y="540.0"/>
      </g>
     </g>
     <g id="line2d_7">
      <g>
       <use style="stroke:#000000;stroke-width:0.5;" x="152.5" xlink:href="#m5a7d422ac3" y="60.0"/>
      </g>
     </g>
     <g id="text_2">
      <!-- −200 -->
      <defs>
       <path d="
M19.1875 8.29688
L53.6094 8.29688
L53.6094 0
L7.32812 0
L7.32812 8.29688
Q12.9375 14.1094 22.625 23.8906
Q32.3281 33.6875 34.8125 36.5312
Q39.5469 41.8438 41.4219 45.5312
Q43.3125 49.2188 43.3125 52.7812
Q43.3125 58.5938 39.2344 62.25
Q35.1562 65.9219 28.6094 65.9219
Q23.9688 65.9219 18.8125 64.3125
Q13.6719 62.7031 7.8125 59.4219
L7.8125 69.3906
Q13.7656 71.7812 18.9375 73
Q24.125 74.2188 28.4219 74.2188
Q39.75 74.2188 46.4844 68.5469
Q53.2188 62.8906 53.2188 53.4219
Q53.2188 48.9219 51.5312 44.8906
Q49.8594 40.875 45.4062 35.4062
Q44.1875 33.9844 37.6406 27.2188
Q31.1094 20.4531 19.1875 8.29688" id="DejaVuSans-32"/>
      </defs>
      <g transform="translate(137.05375 553.118125)scale(0.12 -0.12)">
       <use xlink:href="#DejaVuSans-2212"/>
       <use x="83.7890625" xlink:href="#DejaVuSans-32"/>
       <use x="147.412109375" xlink:href="#DejaVuSans-30"/>
       <use x="211.03515625" xlink:href="#DejaVuSans-30"/>
      </g>
     </g>
    </g>
    <g id="xtick_3">
     <g id="line2d_8">
      <path clip-path="url(#pb27f3bcf95)" d="
M230 540
L230 60" style="fill:none;stroke:#000000;stroke-dasharray:1.000000,3.000000;stroke-dashoffset:0.0;stroke-width:0.5;"/>
     </g>
     <g id="line2d_9">
      <g>
       <use style="stroke:#000000;stroke-width:0.5;" x="230.0" xlink:href="#mc7db9fdffb" y="540.0"/>
      </g>
     </g>
     <g id="line2d_10">
      <g>
       <use style="stroke:#000000;stroke-width:0.5;" x="230.0" xlink:href="#m5a7d422ac3" y="60.0"/>
      </g>
     </g>
     <g id="text_3">
      <!-- −100 -->
      <defs>
       <path d="
M12.4062 8.29688
L28.5156 8.29688
L28.5156 63.9219
L10.9844 60.4062
L10.9844 69.3906
L28.4219 72.9062
L38.2812 72.9062
L38.2812 8.29688
L54.3906 8.29688
L54.3906 0
L12.4062 0
z
" id="DejaVuSans-31"/>
      </defs>
      <g transform="translate(214.55375 553.118125)scale(0.12 -0.12)">
       <use xlink:href="#DejaVuSans-2212"/>
       <use x="83.7890625" xlink:href="#DejaVuSans-31"/>
       <use x="147.412109375" xlink:href="#DejaVuSans-30"/>
       <use x="211.03515625" xlink:href="#DejaVuSans-30"/>
      </g>
     </g>
    </g>
    <g id="xtick_4">
     <g id="line2d_11">
      <path clip-path="url(#pb27f3bcf95)" d="
M307.5 540
L307.5 60" style="fill:none;stroke:#000000;stroke-dasharray:1.000000,3.000000;stroke-dashoffset:0.0;stroke-width:0.5;"/>
     </g>
     <g id="line2d_12">
      <g>
       <use style="stroke:#000000;stroke-width:0.5;" x="307.5" xlink:href="#mc7db9fdffb" y="540.0"/>
      </g>
     </g>
     <g id="line2d_13">
      <g>
       <use style="stroke:#000000;stroke-width:0.5;" x="307.5" xlink:href="#m5a7d422ac3" y="60.0"/>
      </g>
     </g>
     <g id="text_4">
      <!-- 0 -->
      <g transform="translate(304.4765625 553.118125)scale(0.12 -0.12)">
       <use xlink:href="#DejaVuSans-30"/>
      </g>
     </g>
    </g>
    <g id="xtick_5">
     <g id="line2d_14">
      <path clip-path="url(#pb27f3bcf95)" d="
M385 540
L385 60" style="fill:none;stroke:#000000;stroke-dasharray:1.000000,3.000000;stroke-dashoffset:0.0;stroke-width:0.5;"/>
     </g>
     <g id="line2d_15">
      <g>
       <use style="stroke:#000000;stroke-width:0.5;" x="385.0" xlink:href="#mc7db9fdffb" y="540.0"/>
      </g>
     </g>
     <g id="line2d_16">
      <g>
       <use style="stroke:#000000;stroke-width:0.5;" x="385.0" xlink:href="#m5a7d422ac3" y="60.0"/>
      </g>
     </g>
     <g id="text_5">
      <!-- 100 -->
      <g transform="translate(374.605 553.118125)scale(0.12 -0.12)">
       <use xlink:href="#DejaVuSans-31"/>
       <use x="63.623046875" xlink:href="#DejaVuSans-30"/>
       <use x="127.24609375" xlink:href="#DejaVuSans-30"/>
      </g>
     </g>
    </g>
    <g id="xtick_6">
     <g id="line2d_17">
      <path clip-path="url(#pb27f3bcf95)" d="
M462.5 540
L462.5 60" style="fill:none;stroke:#000000;stroke-dasharray:1.000000,3.000000;stroke-dashoffset:0.0;stroke-width:0.5;"/>
     </g>
     <g id="line2d_18">
      <g>
       <use style="stroke:#000000;stroke-width:0.5;" x="462.5" xlink:href="#mc7db9fdffb" y="540.0"/>
      </g>
     </g>
     <g id="line2d_19">
      <g>
       <use style="stroke:#000000;stroke-width:0.5;" x="462.5" xlink:href="#m5a7d422ac3" y="60.0"/>
      </g>
     </g>
     <g id="text_6">
      <!-- 200 -->
      <g transform="translate(451.885625 553.118125)scale(0.12 -0.12)">
       <use xlink:href="#DejaVuSans-32"/>
       <use x="63.623046875" xlink:href="#DejaVuSans-30"/>
       <use x="127.24609375" xlink:href="#DejaVuSans-30"/>
      </g>
     </g>
    </g>
    <g id="xtick_7">
     <g id="line2d_20">
      <path clip-path="url(#pb27f3bcf95)" d="
M540 540
L540 60" style="fill:none;stroke:#000000;stroke-dasharray:1.000000,3.000000;stroke-dashoffset:0.0;stroke-width:0.5;"/>
     </g>
     <g id="line2d_21">
      <g>
       <use style="stroke:#000000;stroke-width:0.5;" x="540.0" xlink:href="#mc7db9fdffb" y="540.0"/>
      </g>
     </g>
     <g id="line2d_22">
      <g>
       <use style="stroke:#000000;stroke-width:0.5;" x="540.0" xlink:href="#m5a7d422ac3" y="60.0"/>
      </g>
     </g>
     <g id="text_7">
      <!-- 300 -->
      <g transform="translate(529.4034375 553.118125)scale(0.12 -0.12)">
       <use xlink:href="#DejaVuSans-33"/>
       <use x="63.623046875" xlink:href="#DejaVuSans-30"/>
       <use x="127.24609375" xlink:href="#DejaVuSans-30"/>
      </g>
     </g>
    </g>
   </g>
   <g id="matplotlib.axis_2">
    <g id="ytick_1">
     <g id="line2d_23">
      <path clip-path="url(#pb27f3bcf95)" d="
M75 540
L540 540" style="fill:none;stroke:#000000;stroke-dasharray:1.000000,3.000000;stroke-dashoffset:0.0;stroke-width:0.5;"/>
     </g>
     <g id="line2d_24">
      <defs>
       <path d="
M0 0
L4 0" id="md7965d1ba0" style="stroke:#000000;stroke-width:0.5;"/>
      </defs>
      <g>
       <use style="stroke:#000000;stroke-width:0.5;" x="75.0" xlink:href="#md7965d1ba0" y="540.0"/>
      </g>
     </g>
     <g id="line2d_25">
      <defs>
       <path d="
M0 0
L-4 0" id="md9a1c1a7cd" style="stroke:#000000;stroke-width:0.5;"/>
      </defs>
      <g>
       <use style="stroke:#000000;stroke-width:0.5;" x="540.0" xlink:href="#md9a1c1a7cd" y="540.0"/>
      </g>
     </g>
     <g id="text_8">
      <!-- −300 -->
      <g transform="translate(40.1075 543.31125)scale(0.12 -0.12)">
       <use xlink:href="#DejaVuSans-2212"/>
       <use x="83.7890625" xlink:href="#DejaVuSans-33"/>
       <use x="147.412109375" xlink:href="#DejaVuSans-30"/>
       <use x="211.03515625" xlink:href="#DejaVuSans-30"/>
      </g>
     </g>
    </g>
    <g id="ytick_2">
     <g id="line2d_26">
      <path clip-path="url(#pb27f3bcf95)" d="
M75 460
L540 460" style="fill:none;stroke:#000000;stroke-dasharray:1.000000,3.000000;stroke-dashoffset:0.0;stroke-width:0.5;"/>
     </g>
     <g id="line2d_27">
      <g>
       <use style="stroke:#000000;stroke-width:0.5;" x="75.0" xlink:href="#md7965d1ba0" y="460.0"/>
      </g>
     </g>
     <g id="line2d_28">
      <g>
       <use style="stroke:#000000;stroke-width:0.5;" x="540.0" xlink:href="#md9a1c1a7cd" y="460.0"/>
      </g>
     </g>
     <g id="text_9">
      <!-- −200 -->
      <g transform="translate(40.1075 463.31125)scale(0.12 -0.12)">
       <use xlink:href="#DejaVuSans-2212"/>
       <use x="83.7890625" xlink:href="#DejaVuSans-32"/>
       <use x="147.412109375" xlink:href="#DejaVuSans-30"/>
       <use x="211.03515625" xlink:href="#DejaVuSans-30"/>
      </g>
     </g>
    </g>
    <g id="ytick_3">
     <g id="line2d_29">
      <path clip-path="url(#pb27f3bcf95)" d="
M75 380
L540 380" style="fill:none;stroke:#000000;stroke-dasharray:1.000000,3.000000;stroke-dashoffset:0.0;stroke-width:0.5;"/>
     </g>
     <g id="line2d_30">
      <g>
       <use style="stroke:#000000;stroke-width:0.5;" x="75.0" xlink:href="#md7965d1ba0" y="380.0"/>
      </g>
     </g>
     <g id="line2d_31">
      <g>
       <use style="stroke:#000000;stroke-width:0.5;" x="540.0" xlink:href="#md9a1c1a7cd" y="380.0"/>
      </g>
     </g>
     <g id="text_10">
      <!-- −100 -->
      <g transform="translate(40.1075 383.31125)scale(0.12 -0.12)">
       <use xlink:href="#DejaVuSans-2212"/>
       <use x="83.7890625" xlink:href="#DejaVuSans-31"/>
       <use x="147.412109375" xlink:href="#DejaVuSans-30"/>
       <use x="211.03515625" xlink:href="#DejaVuSans-30"/>
      </g>
     </g>
    </g>
    <g id="ytick_4">
     <g id="line2d_32">
      <path clip-path="url(#pb27f3bcf95)" d="
M75 300
L540 300" style="fill:none;stroke:#000000;stroke-dasharray:1.000000,3.000000;stroke-dashoffset:0.0;stroke-width:0.5;"/>
     </g>
     <g id="line2d_33">
      <g>
       <use style="stroke:#000000;stroke-width:0.5;" x="75.0" xlink:href="#md7965d1ba0" y="300.0"/>
      </g>
     </g>
     <g id="line2d_34">
      <g>
       <use style="stroke:#000000;stroke-width:0.5;" x="540.0" xlink:href="#md9a1c1a7cd" y="300.0"/>
      </g>
     </g>
     <g id="text_11">
      <!-- 0 -->
      <g transform="translate(64.953125 303.31125)scale(0.12 -0.12)">
       <use xlink:href="#DejaVuSans-30"/>
      </g>
     </g>
    </g>
    <g id="ytick_5">
     <g id="line2d_35">
      <path clip-path="url(#pb27f3bcf95)" d="
M75 220
L540 220" style="fill:none;stroke:#000000;stroke-dasharray:1.000000,3.000000;stroke-dashoffset:0.0;stroke-width:0.5;"/>
     </g>
     <g id="line2d_36">
      <g>
       <use style="stroke:#000000;stroke-width:0.5;" x="75.0" xlink:href="#md7965d1ba0" y="220.0"/>
      </g>
     </g>
     <g id="line2d_37">
      <g>
       <use style="stroke:#000000;stroke-width:0.5;" x="540.0" xlink:href="#md9a1c1a7cd" y="220.0"/>
      </g>
     </g>
     <g id="text_12">
      <!-- 100 -->
      <g transform="translate(50.21 223.31125)scale(0.12 -0.12)">
       <use xlink:href="#DejaVuSans-31"/>
       <use x="63.623046875" xlink:href="#DejaVuSans-30"/>
       <use x="127.24609375" xlink:href="#DejaVuSans-30"/>
      </g>
     </g>
    </g>
    <g id="ytick_6">
     <g id="line2d_38">
      <path clip-path="url(#pb27f3bcf95)" d="
M75 140
L540 140" style="fill:none;stroke:#000000;stroke-dasharray:1.000000,3.000000;stroke-dashoffset:0.0;stroke-width:0.5;"/>
     </g>
     <g id="line2d_39">
      <g>
       <use style="stroke:#000000;stroke-width:0.5;" x="75.0" xlink:href="#md7965d1ba0" y="140.0"/>
      </g>
     </g>
     <g id="line2d_40">
      <g>
       <use style="stroke:#000000;stroke-width:0.5;" x="540.0" xlink:href="#md9a1c1a7cd" y="140.0"/>
      </g>
     </g>
     <g id="text_13">
      <!-- 200 -->
      <g transform="translate(49.77125 143.31125)scale(0.12 -0.12)">
       <use xlink:href="#DejaVuSans-32"/>
       <use x="63.623046875" xlink:href="#DejaVuSans-30"/>
       <use x="127.24609375" xlink:href="#DejaVuSans-30"/>
      </g>
     </g>
    </g>
    <g id="ytick_7">
     <g id="line2d_41">
      <path clip-path="url(#pb27f3bcf95)" d="
M75 60
L540 60" style="fill:none;stroke:#000000;stroke-dasharray:1.000000,3.000000;stroke-dashoffset:0.0;stroke-width:0.5;"/>
     </g>
     <g id="line2d_42">
      <g>
       <use style="stroke:#000000;stroke-width:0.5;" x="75.0" xlink:href="#md7965d1ba0" y="60.0"/>
      </g>
     </g>
     <g id="line2d_43">
      <g>
       <use style="stroke:#000000;stroke-width:0.5;" x="540.0" xlink:href="#md9a1c1a7cd" y="60.0"/>
      </g>
     </g>
     <g id="text_14">
      <!-- 300 -->
      <g transform="translate(49.806875 63.31125)scale(0.12 -0.12)">
       <use xlink:href="#DejaVuSans-33"/>
       <use x="63.623046875" xlink:href="#DejaVuSans-30"/>
       <use x="127.24609375" xlink:href="#DejaVuSans-30"/>
      </g>
     </g>
    </g>
   </g>
   <g id="patch_13">
    <path d="
M75 540
L540 540" style="fill:none;stroke:#000000;"/>
   </g>
   <g id="patch_14">
    <path d="
M75 540
L75 60" style="fill:none;stroke:#000000;"/>
   </g>
   <g id="patch_15">
    <path d="
M75 60
L540 60" style="fill:none;stroke:#000000;"/>
   </g>
   <g id="patch_16">
    <path d="
M540 540
L540 60" style="fill:none;stroke:#000000;"/>
   </g>
  </g>
 </g>
 <defs>
  <clipPath id="pb27f3bcf95">
   <rect height="480.0" width="465.0" x="75.0" y="60.0"/>
  </clipPath>
 </defs>
</svg>
